Hibana-SubMedium.ufo
<glyph name="ampersand" format="2">
	<advance width="776"/>
	<unicode hex="0026"/>
	<outline>
		<contour>
			<point x="305" y="-14" type="curve" smooth="yes"/>
			<point x="572" y="-14"/>
			<point x="623" y="134"/>
			<point x="667" y="391" type="curve"/>
			<point x="572" y="391" type="line"/>
			<point x="546" y="144"/>
			<point x="461" y="76"/>
			<point x="307" y="76" type="curve" smooth="yes"/>
			<point x="174" y="76"/>
			<point x="145" y="133"/>
			<point x="145" y="203" type="curve" smooth="yes"/>
			<point x="145" y="301"/>
			<point x="266" y="334"/>
			<point x="360" y="360" type="curve" smooth="yes"/>
			<point x="454" y="386"/>
			<point x="560" y="450"/>
			<point x="560" y="577" type="curve" smooth="yes"/>
			<point x="560" y="687"/>
			<point x="508" y="772"/>
			<point x="334" y="772" type="curve" smooth="yes"/>
			<point x="187" y="772"/>
			<point x="119" y="684"/>
			<point x="119" y="577" type="curve" smooth="yes"/>
			<point x="119" y="399"/>
			<point x="386" y="188"/>
			<point x="622" y="0" type="curve"/>
			<point x="756" y="0" type="line"/>
			<point x="496" y="210"/>
			<point x="214" y="439"/>
			<point x="214" y="577" type="curve" smooth="yes"/>
			<point x="214" y="636"/>
			<point x="249" y="679"/>
			<point x="332" y="682" type="curve" smooth="yes"/>
			<point x="449" y="686"/>
			<point x="465" y="637"/>
			<point x="465" y="577" type="curve" smooth="yes"/>
			<point x="465" y="491"/>
			<point x="390" y="454"/>
			<point x="304" y="433" type="curve" smooth="yes"/>
			<point x="218" y="412"/>
			<point x="50" y="371"/>
			<point x="50" y="199" type="curve" smooth="yes"/>
			<point x="50" y="89"/>
			<point x="112" y="-14"/>
		</contour>
	</outline>
</glyph>
<glyph name="three" format="2">
	<advance width="598"/>
	<unicode hex="0033"/>
	<outline>
		<contour>
			<point x="288" y="-14" type="curve" smooth="yes"/>
			<point x="486" y="-14"/>
			<point x="560" y="90"/>
			<point x="560" y="207" type="curve" smooth="yes"/>
			<point x="560" y="295"/>
			<point x="524" y="364"/>
			<point x="427" y="399" type="curve"/>
			<point x="504" y="425"/>
			<point x="537" y="488"/>
			<point x="537" y="562" type="curve" smooth="yes"/>
			<point x="537" y="700"/>
			<point x="452" y="772"/>
			<point x="288" y="772" type="curve" smooth="yes"/>
			<point x="127" y="772"/>
			<point x="39" y="673"/>
			<point x="39" y="555" type="curve"/>
			<point x="128" y="555" type="line"/>
			<point x="128" y="644"/>
			<point x="188" y="687"/>
			<point x="288" y="687" type="curve" smooth="yes"/>
			<point x="408" y="687"/>
			<point x="448" y="652"/>
			<point x="448" y="562" type="curve" smooth="yes"/>
			<point x="448" y="473"/>
			<point x="379" y="435"/>
			<point x="289" y="435" type="curve" smooth="yes"/>
			<point x="277" y="435"/>
			<point x="231" y="435"/>
			<point x="188" y="437" type="curve"/>
			<point x="188" y="348" type="line"/>
			<point x="231" y="350"/>
			<point x="277" y="350"/>
			<point x="289" y="350" type="curve" smooth="yes"/>
			<point x="389" y="350"/>
			<point x="465" y="308"/>
			<point x="465" y="207" type="curve" smooth="yes"/>
			<point x="465" y="106"/>
			<point x="381" y="76"/>
			<point x="288" y="76" type="curve" smooth="yes"/>
			<point x="199" y="76"/>
			<point x="126" y="108"/>
			<point x="121" y="194" type="curve"/>
			<point x="26" y="194" type="line"/>
			<point x="30" y="82"/>
			<point x="104" y="-14"/>
		</contour>
	</outline>
</glyph>
<glyph name="seven" format="2">
	<advance width="523"/>
	<unicode hex="0037"/>
	<outline>
		<contour>
			<point x="106" y="0" type="line"/>
			<point x="211" y="0" type="line"/>
			<point x="451" y="554" type="line" smooth="yes"/>
			<point x="488" y="639"/>
			<point x="503" y="685"/>
			<point x="503" y="752" type="curve"/>
			<point x="12" y="752" type="line"/>
			<point x="12" y="662" type="line"/>
			<point x="393" y="662" type="line"/>
		</contour>
	</outline>
</glyph>
<glyph name="less" format="2">
	<advance width="589"/>
	<unicode hex="003C"/>
	<outline>
		<contour>
			<point x="549" y="44" type="line"/>
			<point x="549" y="133" type="line"/>
			<point x="123" y="325" type="line"/>
			<point x="549" y="516" type="line"/>
			<point x="549" y="605" type="line"/>
			<point x="35" y="367" type="line"/>
			<point x="35" y="282" type="line"/>
		</contour>
	</outline>
</glyph>
<glyph name="equal" format="2">
	<advance width="584"/>
	<unicode hex="003D"/>
	<outline>
		<contour>
			<point x="35" y="392" type="line"/>
			<point x="549" y="392" type="line"/>
			<point x="549" y="471" type="line"/>
			<point x="35" y="471" type="line"/>
		</contour>
		<contour>
			<point x="35" y="172" type="line"/>
			<point x="549" y="172" type="line"/>
			<point x="549" y="251" type="line"/>
			<point x="35" y="251" type="line"/>
		</contour>
	</outline>
</glyph>
<glyph name="C" format="2">
	<advance width="706"/>
	<unicode hex="0043"/>
	<anchor x="401" y="772" name="top"/>
	<anchor x="403" y="-11" name="bottom"/>
	<outline>
		<contour>
			<point x="401" y="-14" type="curve" smooth="yes"/>
			<point x="515" y="-14"/>
			<point x="606" y="26"/>
			<point x="662" y="83" type="curve"/>
			<point x="594" y="151" type="line"/>
			<point x="553" y="105"/>
			<point x="480" y="75"/>
			<point x="401" y="75" type="curve" smooth="yes"/>
			<point x="217" y="75"/>
			<point x="147" y="197"/>
			<point x="147" y="379" type="curve" smooth="yes"/>
			<point x="147" y="560"/>
			<point x="217" y="683"/>
			<point x="401" y="683" type="curve" smooth="yes"/>
			<point x="490" y="683"/>
			<point x="543" y="656"/>
			<point x="584" y="610" type="curve"/>
			<point x="655" y="680" type="line"/>
			<point x="599" y="737"/>
			<point x="515" y="772"/>
			<point x="401" y="772" type="curve" smooth="yes"/>
			<point x="149" y="772"/>
			<point x="52" y="594"/>
			<point x="52" y="379" type="curve" smooth="yes"/>
			<point x="52" y="164"/>
			<point x="149" y="-14"/>
		</contour>
	</outline>
</glyph>
<glyph name="H" format="2">
	<advance width="742"/>
	<unicode hex="0048"/>
	<anchor x="371" y="376" name="center"/>
	<anchor x="371" y="752" name="top"/>
	<anchor x="20" y="752" name="topleft"/>
	<anchor x="371" y="0" name="bottom"/>
	<outline>
		<contour>
			<point x="78" y="0" type="line"/>
			<point x="172" y="0" type="line"/>
			<point x="172" y="341" type="line"/>
			<point x="570" y="341" type="line"/>
			<point x="570" y="0" type="line"/>
			<point x="664" y="0" type="line"/>
			<point x="664" y="752" type="line"/>
			<point x="570" y="752" type="line"/>
			<point x="570" y="431" type="line"/>
			<point x="172" y="431" type="line"/>
			<point x="172" y="752" type="line"/>
			<point x="78" y="752" type="line"/>
		</contour>
	</outline>
</glyph>
<glyph name="J" format="2">
	<advance width="409"/>
	<unicode hex="004A"/>
	<anchor x="205" y="752" name="top"/>
	<anchor x="205" y="0" name="bottom"/>
	<outline>
		<contour>
			<point x="26" y="-14" type="line"/>
			<point x="240" y="-14"/>
			<point x="331" y="-13"/>
			<point x="331" y="232" type="curve" smooth="yes"/>
			<point x="331" y="752" type="line"/>
			<point x="237" y="752" type="line"/>
			<point x="237" y="252" type="line" smooth="yes"/>
			<point x="237" y="85"/>
			<point x="182" y="73"/>
			<point x="30" y="84" type="curve"/>
		</contour>
	</outline>
</glyph>
<glyph name="M" format="2">
	<advance width="990"/>
	<unicode hex="004D"/>
	<anchor x="495" y="752" name="top"/>
	<anchor x="495" y="97" name="bottom"/>
	<outline>
		<contour>
			<point x="78" y="0" type="line"/>
			<point x="172" y="0" type="line"/>
			<point x="172" y="575" type="line"/>
			<point x="454" y="97" type="line"/>
			<point x="546" y="97" type="line"/>
			<point x="818" y="575" type="line"/>
			<point x="818" y="0" type="line"/>
			<point x="912" y="0" type="line"/>
			<point x="912" y="752" type="line"/>
			<point x="818" y="752" type="line"/>
			<point x="500" y="210" type="line"/>
			<point x="172" y="752" type="line"/>
			<point x="78" y="752" type="line"/>
		</contour>
	</outline>
</glyph>
<glyph name="O" format="2">
	<advance width="800"/>
	<unicode hex="004F"/>
	<anchor x="400" y="376" name="center"/>
	<anchor x="482" y="-9" name="ogonek"/>
	<anchor x="401" y="772" name="top"/>
	<anchor x="781" y="772" name="topright"/>
	<anchor x="21" y="772" name="topleft"/>
	<anchor x="400" y="0" name="bottom"/>
	<outline>
		<contour>
			<point x="401" y="-14" type="curve" smooth="yes"/>
			<point x="653" y="-14"/>
			<point x="750" y="164"/>
			<point x="750" y="379" type="curve" smooth="yes"/>
			<point x="750" y="594"/>
			<point x="653" y="772"/>
			<point x="401" y="772" type="curve" smooth="yes"/>
			<point x="149" y="772"/>
			<point x="52" y="594"/>
			<point x="52" y="379" type="curve" smooth="yes"/>
			<point x="52" y="164"/>
			<point x="149" y="-14"/>
		</contour>
		<contour>
			<point x="401" y="76" type="curve" smooth="yes"/>
			<point x="217" y="76"/>
			<point x="148" y="197"/>
			<point x="148" y="379" type="curve" smooth="yes"/>
			<point x="148" y="560"/>
			<point x="217" y="683"/>
			<point x="401" y="683" type="curve" smooth="yes"/>
			<point x="586" y="683"/>
			<point x="654" y="560"/>
			<point x="654" y="379" type="curve" smooth="yes"/>
			<point x="654" y="207"/>
			<point x="586" y="76"/>
		</contour>
	</outline>
</glyph>
<glyph name="W" format="2">
	<advance width="1065"/>
	<unicode hex="0057"/>
	<anchor x="533" y="752" name="top"/>
	<anchor x="533" y="0" name="bottom"/>
	<outline>
		<contour>
			<point x="233" y="0" type="line"/>
			<point x="355" y="0" type="line"/>
			<point x="533" y="624" type="line"/>
			<point x="711" y="0" type="line"/>
			<point x="832" y="0" type="line"/>
			<point x="1022" y="752" type="line"/>
			<point x="919" y="752" type="line"/>
			<point x="768" y="111" type="line"/>
			<point x="598" y="752" type="line"/>
			<point x="468" y="752" type="line"/>
			<point x="297" y="111" type="line"/>
			<point x="148" y="752" type="line"/>
			<point x="43" y="752" type="line"/>
		</contour>
	</outline>
</glyph>
<glyph name="underscore" format="2">
	<advance width="591"/>
	<unicode hex="005F"/>
	<outline>
		<contour>
			<point x="10" y="-127" type="line"/>
			<point x="581" y="-127" type="line"/>
			<point x="581" y="-35" type="line"/>
			<point x="10" y="-35" type="line"/>
		</contour>
	</outline>
</glyph>
<glyph name="grave" format="2">
	<advance width="600"/>
	<unicode hex="0060"/>
	<outline>
		<contour>
			<point x="347" y="576" type="line"/>
			<point x="264" y="714" type="line"/>
			<point x="153" y="714" type="line"/>
			<point x="253" y="576" type="line"/>
		</contour>
	</outline>
</glyph>
<glyph name="c" format="2">
	<advance width="560"/>
	<unicode hex="0063"/>
	<anchor x="316" y="524" name="top"/>
	<anchor x="315" y="-11" name="bottom"/>
	<outline>
		<contour>
			<point x="316" y="-14" type="curve" smooth="yes"/>
			<point x="407" y="-14"/>
			<point x="469" y="15"/>
			<point x="512" y="59" type="curve"/>
			<point x="447" y="123" type="line"/>
			<point x="416" y="93"/>
			<point x="372" y="76"/>
			<point x="316" y="76" type="curve" smooth="yes"/>
			<point x="207" y="76"/>
			<point x="138" y="142"/>
			<point x="138" y="255" type="curve" smooth="yes"/>
			<point x="138" y="368"/>
			<point x="205" y="434"/>
			<point x="316" y="434" type="curve" smooth="yes"/>
			<point x="372" y="434"/>
			<point x="417" y="418"/>
			<point x="447" y="387" type="curve"/>
			<point x="512" y="451" type="line"/>
			<point x="469" y="494"/>
			<point x="406" y="524"/>
			<point x="316" y="524" type="curve" smooth="yes"/>
			<point x="115" y="524"/>
			<point x="43" y="375"/>
			<point x="43" y="255" type="curve" smooth="yes"/>
			<point x="43" y="135"/>
			<point x="115" y="-14"/>
		</contour>
	</outline>
</glyph>
<glyph name="e" format="2">
	<advance width="611"/>
	<unicode hex="0065"/>
	<anchor x="412" y="-3" name="ogonek"/>
	<anchor x="310" y="-11" name="bottom"/>
	<anchor x="306" y="504" name="top"/>
	<outline>
		<contour>
			<point x="309" y="-14" type="curve" smooth="yes"/>
			<point x="410" y="-14"/>
			<point x="510" y="19"/>
			<point x="553" y="144" type="curve"/>
			<point x="463" y="144" type="line"/>
			<point x="429" y="88"/>
			<point x="365" y="76"/>
			<point x="309" y="76" type="curve" smooth="yes"/>
			<point x="192" y="76"/>
			<point x="139" y="142"/>
			<point x="136" y="227" type="curve"/>
			<point x="570" y="227" type="line"/>
			<point x="570" y="473"/>
			<point x="418" y="524"/>
			<point x="309" y="524" type="curve" smooth="yes"/>
			<point x="108" y="524"/>
			<point x="43" y="375"/>
			<point x="43" y="255" type="curve" smooth="yes"/>
			<point x="43" y="103"/>
			<point x="116" y="-14"/>
		</contour>
		<contour>
			<point x="138" y="309" type="line"/>
			<point x="153" y="385"/>
			<point x="212" y="435"/>
			<point x="306" y="435" type="curve" smooth="yes"/>
			<point x="363" y="435"/>
			<point x="458" y="412"/>
			<point x="475" y="309" type="curve"/>
		</contour>
	</outline>
</glyph>
<glyph name="f" format="2">
	<advance width="392"/>
	<unicode hex="0066"/>
	<anchor x="196" y="782" name="top"/>
	<anchor x="196" y="0" name="bottom"/>
	<outline>
		<contour>
			<point x="129" y="0" type="line"/>
			<point x="220" y="0" type="line"/>
			<point x="220" y="611" type="line" smooth="yes"/>
			<point x="220" y="699"/>
			<point x="264" y="695"/>
			<point x="339" y="690" type="curve" smooth="yes"/>
			<point x="355" y="689" type="line"/>
			<point x="361" y="780" type="line"/>
			<point x="335" y="780" type="line" smooth="yes"/>
			<point x="198" y="780"/>
			<point x="129" y="779"/>
			<point x="129" y="604" type="curve" smooth="yes"/>
		</contour>
		<contour>
			<point x="219" y="0" type="move"/>
			<point x="129" y="0" type="line"/>
		</contour>
		<contour>
			<point x="30" y="422" type="line"/>
			<point x="336" y="422" type="line"/>
			<point x="340" y="504" type="line"/>
			<point x="30" y="504" type="line"/>
		</contour>
	</outline>
</glyph>
<glyph name="j" format="2">
	<advance width="227"/>
	<unicode hex="006A"/>
	<outline>
		<contour>
			<point x="-84" y="-276" type="line"/>
			<point x="-46" y="-276" type="line" smooth="yes"/>
			<point x="91" y="-276"/>
			<point x="160" y="-272"/>
			<point x="160" y="-41" type="curve" smooth="yes"/>
			<point x="160" y="504" type="line"/>
			<point x="69" y="504" type="line"/>
			<point x="69" y="-48" type="line" smooth="yes"/>
			<point x="69" y="-173"/>
			<point x="33" y="-186"/>
			<point x="-50" y="-183" type="curve" smooth="yes"/>
			<point x="-80" y="-182" type="line"/>
		</contour>
		<contour>
			<point x="115" y="640" type="curve" smooth="yes"/>
			<point x="149" y="640"/>
			<point x="178" y="668"/>
			<point x="178" y="703" type="curve" smooth="yes"/>
			<point x="178" y="738"/>
			<point x="149" y="766"/>
			<point x="115" y="766" type="curve" smooth="yes"/>
			<point x="81" y="766"/>
			<point x="52" y="738"/>
			<point x="52" y="703" type="curve" smooth="yes"/>
			<point x="52" y="668"/>
			<point x="81" y="640"/>
		</contour>
	</outline>
</glyph>
<glyph name="m" format="2">
	<advance width="913"/>
	<unicode hex="006D"/>
	<anchor x="457" y="504" name="top"/>
	<anchor x="457" y="0" name="bottom"/>
	<outline>
		<contour>
			<point x="78" y="0" type="line"/>
			<point x="169" y="0" type="line"/>
			<point x="169" y="331" type="line"/>
			<point x="168" y="375"/>
			<point x="200" y="434"/>
			<point x="292" y="434" type="curve" smooth="yes"/>
			<point x="384" y="434"/>
			<point x="418" y="375"/>
			<point x="418" y="331" type="curve"/>
			<point x="418" y="0" type="line"/>
			<point x="507" y="0" type="line"/>
			<point x="507" y="331" type="line"/>
			<point x="506" y="375"/>
			<point x="538" y="434"/>
			<point x="630" y="434" type="curve" smooth="yes"/>
			<point x="722" y="434"/>
			<point x="755" y="375"/>
			<point x="755" y="331" type="curve"/>
			<point x="755" y="0" type="line"/>
			<point x="846" y="0" type="line"/>
			<point x="846" y="331" type="line" smooth="yes"/>
			<point x="846" y="348"/>
			<point x="845" y="385"/>
			<point x="837" y="411" type="curve" smooth="yes"/>
			<point x="819" y="477"/>
			<point x="748" y="524"/>
			<point x="658" y="524" type="curve" smooth="yes"/>
			<point x="559" y="524"/>
			<point x="496" y="464"/>
			<point x="487" y="452" type="curve"/>
			<point x="463" y="483"/>
			<point x="401" y="524"/>
			<point x="320" y="524" type="curve" smooth="yes"/>
			<point x="220" y="524"/>
			<point x="176" y="463"/>
			<point x="169" y="452" type="curve"/>
			<point x="169" y="504" type="line"/>
			<point x="78" y="504" type="line"/>
		</contour>
	</outline>
</glyph>
<glyph name="n" format="2">
	<advance width="637"/>
	<unicode hex="006E"/>
	<anchor x="320" y="522" name="top"/>
	<anchor x="320" y="0" name="bottom"/>
	<outline>
		<contour>
			<point x="78" y="0" type="line"/>
			<point x="171" y="0" type="line"/>
			<point x="171" y="302" type="line" smooth="yes"/>
			<point x="171" y="313"/>
			<point x="171" y="326"/>
			<point x="173" y="337" type="curve" smooth="yes"/>
			<point x="184" y="397"/>
			<point x="261" y="433"/>
			<point x="335" y="433" type="curve" smooth="yes"/>
			<point x="399" y="433"/>
			<point x="456" y="406"/>
			<point x="472" y="355" type="curve" smooth="yes"/>
			<point x="477" y="338"/>
			<point x="479" y="321"/>
			<point x="479" y="304" type="curve" smooth="yes"/>
			<point x="479" y="0" type="line"/>
			<point x="572" y="0" type="line"/>
			<point x="572" y="308" type="line" smooth="yes"/>
			<point x="572" y="456"/>
			<point x="492" y="525"/>
			<point x="352" y="524" type="curve" smooth="yes"/>
			<point x="247" y="523"/>
			<point x="187" y="481"/>
			<point x="171" y="450" type="curve"/>
			<point x="171" y="504" type="line"/>
			<point x="78" y="504" type="line"/>
		</contour>
	</outline>
</glyph>
<glyph name="y" format="2">
	<advance width="591"/>
	<unicode hex="0079"/>
	<guideline x="271" y="19" angle="69"/>
	<anchor x="291" y="504" name="top"/>
	<anchor x="291" y="0" name="bottom"/>
	<outline>
		<contour>
			<point x="75" y="-268" type="line"/>
			<point x="166" y="-268" type="line" smooth="yes"/>
			<point x="255" y="-268"/>
			<point x="263" y="-258"/>
			<point x="323" y="-99" type="curve" smooth="yes"/>
			<point x="552" y="504" type="line"/>
			<point x="454" y="504" type="line"/>
			<point x="294" y="79" type="line"/>
			<point x="132" y="504" type="line"/>
			<point x="33" y="504" type="line"/>
			<point x="249" y="-38" type="line"/>
			<point x="223" y="-107" type="line" smooth="yes"/>
			<point x="199" y="-170"/>
			<point x="187" y="-179"/>
			<point x="114" y="-177" type="curve" smooth="yes"/>
			<point x="78" y="-176" type="line"/>
		</contour>
	</outline>
</glyph>
<glyph name="bar" format="2">
	<advance width="280"/>
	<unicode hex="007C"/>
	<outline>
		<contour>
			<point x="100" y="-278" type="line"/>
			<point x="180" y="-278" type="line"/>
			<point x="180" y="752" type="line"/>
			<point x="100" y="752" type="line"/>
		</contour>
	</outline>
</glyph>
<glyph name="registered" format="2">
	<advance width="449"/>
	<unicode hex="00AE"/>
	<outline>
		<contour>
			<point x="224" y="391" type="curve" smooth="yes"/>
			<point x="328" y="391"/>
			<point x="413" y="476"/>
			<point x="413" y="580" type="curve" smooth="yes"/>
			<point x="413" y="683"/>
			<point x="328" y="768"/>
			<point x="224" y="768" type="curve" smooth="yes"/>
			<point x="121" y="768"/>
			<point x="36" y="683"/>
			<point x="36" y="580" type="curve" smooth="yes"/>
			<point x="36" y="476"/>
			<point x="121" y="391"/>
		</contour>
		<contour>
			<point x="224" y="428" type="curve" smooth="yes"/>
			<point x="141" y="428"/>
			<point x="73" y="496"/>
			<point x="73" y="580" type="curve" smooth="yes"/>
			<point x="73" y="663"/>
			<point x="141" y="731"/>
			<point x="224" y="731" type="curve" smooth="yes"/>
			<point x="308" y="731"/>
			<point x="376" y="663"/>
			<point x="376" y="580" type="curve" smooth="yes"/>
			<point x="376" y="496"/>
			<point x="308" y="428"/>
		</contour>
		<contour>
			<point x="155" y="473" type="line"/>
			<point x="186" y="473" type="line"/>
			<point x="186" y="555" type="line"/>
			<point x="221" y="555" type="line" smooth="yes"/>
			<point x="274" y="555"/>
			<point x="307" y="574"/>
			<point x="307" y="623" type="curve" smooth="yes"/>
			<point x="307" y="672"/>
			<point x="273" y="691"/>
			<point x="221" y="691" type="curve" smooth="yes"/>
			<point x="155" y="691" type="line"/>
		</contour>
		<contour>
			<point x="278" y="473" type="curve"/>
			<point x="312" y="473" type="line"/>
			<point x="308" y="479"/>
			<point x="307" y="485"/>
			<point x="304" y="496" type="curve" smooth="yes"/>
			<point x="297" y="525" type="line" smooth="yes"/>
			<point x="289" y="557"/>
			<point x="264" y="580"/>
			<point x="238" y="580" type="curve"/>
			<point x="221" y="555" type="line"/>
			<point x="237" y="555"/>
			<point x="261" y="552"/>
			<point x="266" y="524" type="curve" smooth="yes"/>
			<point x="272" y="493" type="line" smooth="yes"/>
			<point x="274" y="484"/>
			<point x="275" y="478"/>
		</contour>
		<contour>
			<point x="186" y="586" type="line"/>
			<point x="186" y="660" type="line"/>
			<point x="224" y="660" type="line" smooth="yes"/>
			<point x="261" y="660"/>
			<point x="275" y="653"/>
			<point x="275" y="623" type="curve" smooth="yes"/>
			<point x="275" y="593"/>
			<point x="262" y="586"/>
			<point x="225" y="586" type="curve" smooth="yes"/>
		</contour>
	</outline>
</glyph>
<glyph name="periodcentered" format="2">
	<advance width="221"/>
	<unicode hex="00B7"/>
	<outline>
		<contour>
			<point x="111" y="287" type="curve" smooth="yes"/>
			<point x="148" y="287"/>
			<point x="178" y="316"/>
			<point x="178" y="354" type="curve" smooth="yes"/>
			<point x="178" y="392"/>
			<point x="148" y="421"/>
			<point x="111" y="421" type="curve" smooth="yes"/>
			<point x="74" y="421"/>
			<point x="43" y="392"/>
			<point x="43" y="354" type="curve" smooth="yes"/>
			<point x="43" y="316"/>
			<point x="74" y="287"/>
		</contour>
	</outline>
</glyph>
<glyph name="questiondown" format="2">
	<advance width="541"/>
	<unicode hex="00BF"/>
	<outline>
		<contour>
			<point x="331" y="303" type="curve"/>
			<point x="238" y="303" type="line"/>
			<point x="238" y="239"/>
			<point x="229" y="195"/>
			<point x="181" y="158" type="curve" smooth="yes"/>
			<point x="113" y="105"/>
			<point x="44" y="52"/>
			<point x="44" y="-37" type="curve" smooth="yes"/>
			<point x="44" y="-194"/>
			<point x="123" y="-254"/>
			<point x="281" y="-254" type="curve" smooth="yes"/>
			<point x="438" y="-254"/>
			<point x="518" y="-166"/>
			<point x="523" y="-34" type="curve"/>
			<point x="428" y="-34" type="line"/>
			<point x="418" y="-115"/>
			<point x="390" y="-162"/>
			<point x="284" y="-164" type="curve" smooth="yes"/>
			<point x="188" y="-166"/>
			<point x="140" y="-145"/>
			<point x="140" y="-37" type="curve" smooth="yes"/>
			<point x="140" y="11"/>
			<point x="181" y="44"/>
			<point x="240" y="90" type="curve" smooth="yes"/>
			<point x="313" y="147"/>
			<point x="331" y="207"/>
		</contour>
		<contour>
			<point x="284" y="532" type="curve" smooth="yes"/>
			<point x="247" y="532"/>
			<point x="217" y="503"/>
			<point x="217" y="465" type="curve" smooth="yes"/>
			<point x="217" y="427"/>
			<point x="247" y="398"/>
			<point x="284" y="398" type="curve" smooth="yes"/>
			<point x="321" y="398"/>
			<point x="352" y="427"/>
			<point x="352" y="465" type="curve" smooth="yes"/>
			<point x="352" y="503"/>
			<point x="321" y="532"/>
		</contour>
	</outline>
</glyph>
<glyph name="Eth" format="2">
	<advance width="728"/>
	<unicode hex="00D0"/>
	<outline>
		<contour>
			<point x="98" y="0" type="line"/>
			<point x="314" y="0" type="line" smooth="yes"/>
			<point x="542" y="0"/>
			<point x="678" y="90"/>
			<point x="678" y="389" type="curve" smooth="yes"/>
			<point x="678" y="672"/>
			<point x="540" y="752"/>
			<point x="314" y="752" type="curve" smooth="yes"/>
			<point x="98" y="752" type="line"/>
		</contour>
		<contour>
			<point x="192" y="90" type="line"/>
			<point x="192" y="662" type="line"/>
			<point x="314" y="662" type="line" smooth="yes"/>
			<point x="504" y="662"/>
			<point x="582" y="591"/>
			<point x="582" y="389" type="curve" smooth="yes"/>
			<point x="582" y="167"/>
			<point x="505" y="90"/>
			<point x="314" y="90" type="curve" smooth="yes"/>
		</contour>
		<contour>
			<point x="2" y="423" type="line"/>
			<point x="2" y="336" type="line"/>
			<point x="326" y="336" type="line"/>
			<point x="326" y="423" type="line"/>
		</contour>
	</outline>
</glyph>
<glyph name="Thorn" format="2">
	<advance width="645"/>
	<unicode hex="00DE"/>
	<outline>
		<contour>
			<point x="78" y="0" type="line"/>
			<point x="172" y="0" type="line"/>
			<point x="172" y="180" type="line"/>
			<point x="312" y="180" type="line" smooth="yes"/>
			<point x="497" y="180"/>
			<point x="583" y="221"/>
			<point x="583" y="396" type="curve" smooth="yes"/>
			<point x="583" y="569"/>
			<point x="496" y="615"/>
			<point x="312" y="615" type="curve" smooth="yes"/>
			<point x="172" y="615" type="line"/>
			<point x="172" y="752" type="line"/>
			<point x="78" y="752" type="line"/>
		</contour>
		<contour>
			<point x="172" y="270" type="line"/>
			<point x="172" y="526" type="line"/>
			<point x="322" y="526" type="line" smooth="yes"/>
			<point x="447" y="526"/>
			<point x="488" y="502"/>
			<point x="488" y="397" type="curve" smooth="yes"/>
			<point x="488" y="292"/>
			<point x="452" y="270"/>
			<point x="325" y="270" type="curve" smooth="yes"/>
		</contour>
	</outline>
</glyph>
<glyph name="Hbar" format="2">
	<advance width="823"/>
	<unicode hex="0126"/>
	<outline>
		<contour>
			<point x="58" y="634" type="line"/>
			<point x="58" y="548" type="line"/>
			<point x="765" y="548" type="line"/>
			<point x="765" y="634" type="line"/>
		</contour>
		<component base="H" xOffset="41"/>
	</outline>
</glyph>
<glyph name="Eng" format="2">
	<advance width="772"/>
	<unicode hex="014A"/>
	<outline>
		<contour>
			<point x="78" y="0" type="line"/>
			<point x="172" y="0" type="line"/>
			<point x="172" y="587" type="line"/>
			<point x="600" y="0" type="line"/>
			<point x="694" y="0" type="line"/>
			<point x="694" y="752" type="line"/>
			<point x="600" y="752" type="line"/>
			<point x="600" y="165" type="line"/>
			<point x="172" y="752" type="line"/>
			<point x="78" y="752" type="line"/>
		</contour>
		<contour>
			<point x="694" y="0" type="curve"/>
			<point x="600" y="20" type="line"/>
			<point x="600" y="-179"/>
			<point x="545" y="-191"/>
			<point x="393" y="-180" type="curve"/>
			<point x="389" y="-278" type="line"/>
			<point x="603" y="-278"/>
			<point x="694" y="-277"/>
		</contour>
	</outline>
</glyph>
<glyph name="eng" format="2">
	<advance width="635"/>
	<unicode hex="014B"/>
	<outline>
		<contour>
			<point x="78" y="0" type="line"/>
			<point x="169" y="0" type="line"/>
			<point x="169" y="302" type="line" smooth="yes"/>
			<point x="169" y="313"/>
			<point x="169" y="326"/>
			<point x="171" y="337" type="curve" smooth="yes"/>
			<point x="182" y="397"/>
			<point x="259" y="433"/>
			<point x="333" y="433" type="curve" smooth="yes"/>
			<point x="397" y="433"/>
			<point x="452" y="406"/>
			<point x="470" y="355" type="curve" smooth="yes"/>
			<point x="476" y="338"/>
			<point x="477" y="321"/>
			<point x="477" y="304" type="curve" smooth="yes"/>
			<point x="477" y="3" type="line" smooth="yes"/>
			<point x="477" y="-166"/>
			<point x="451" y="-188"/>
			<point x="358" y="-185" type="curve" smooth="yes"/>
			<point x="328" y="-184" type="line"/>
			<point x="324" y="-278" type="line"/>
			<point x="362" y="-278" type="line" smooth="yes"/>
			<point x="499" y="-278"/>
			<point x="568" y="-275"/>
			<point x="568" y="0" type="curve" smooth="yes"/>
			<point x="568" y="308" type="line" smooth="yes"/>
			<point x="568" y="456"/>
			<point x="498" y="525"/>
			<point x="350" y="524" type="curve" smooth="yes"/>
			<point x="245" y="523"/>
			<point x="185" y="481"/>
			<point x="169" y="450" type="curve"/>
			<point x="169" y="504" type="line"/>
			<point x="78" y="504" type="line"/>
		</contour>
	</outline>
</glyph>
<glyph name="caron" format="2">
	<advance width="600"/>
	<unicode hex="02C7"/>
	<outline>
		<contour>
			<point x="151" y="714" type="line"/>
			<point x="254" y="576" type="line"/>
			<point x="341" y="576" type="line"/>
			<point x="444" y="714" type="line"/>
			<point x="364" y="714" type="line"/>
			<point x="298" y="623" type="line"/>
			<point x="231" y="714" type="line"/>
		</contour>
	</outline>
</glyph>
<glyph name="dieresiscomb" format="2">
	<advance width="600"/>
	<unicode hex="0308"/>
	<anchor x="301.5" y="705" name="top"/>
	<anchor x="301.5" y="504" name="_top"/>
	<outline>
		<contour>
			<point x="207" y="577" type="curve" smooth="yes"/>
			<point x="240" y="577"/>
			<point x="267" y="604"/>
			<point x="267" y="637" type="curve" smooth="yes"/>
			<point x="267" y="670"/>
			<point x="240" y="697"/>
			<point x="207" y="697" type="curve" smooth="yes"/>
			<point x="174" y="697"/>
			<point x="147" y="670"/>
			<point x="147" y="637" type="curve" smooth="yes"/>
			<point x="147" y="604"/>
			<point x="174" y="577"/>
		</contour>
		<contour>
			<point x="396" y="577" type="curve" smooth="yes"/>
			<point x="429" y="577"/>
			<point x="456" y="604"/>
			<point x="456" y="637" type="curve" smooth="yes"/>
			<point x="456" y="670"/>
			<point x="429" y="697"/>
			<point x="396" y="697" type="curve" smooth="yes"/>
			<point x="363" y="697"/>
			<point x="336" y="670"/>
			<point x="336" y="637" type="curve" smooth="yes"/>
			<point x="336" y="604"/>
			<point x="363" y="577"/>
		</contour>
	</outline>
</glyph>
<glyph name="commaturnedabovecomb" format="2">
	<advance width="600"/>
	<unicode hex="0312"/>
	<anchor x="356" y="752" name="top"/>
	<anchor x="356" y="504" name="_top"/>
	<outline>
		<contour>
			<point x="429" y="747" type="line"/>
			<point x="361" y="747" type="line"/>
			<point x="283" y="557" type="line"/>
			<point x="389" y="557" type="line"/>
		</contour>
	</outline>
</glyph>
<glyph name="commaaccentcomb" format="2">
	<advance width="600"/>
	<unicode hex="0326"/>
	<anchor x="369.5" y="0" name="_bottom"/>
	<anchor x="369.5" y="-200" name="bottom"/>
	<outline>
		<contour>
			<point x="231" y="-200" type="line"/>
			<point x="325" y="-200" type="line"/>
			<point x="425" y="-62" type="line"/>
			<point x="314" y="-62" type="line"/>
		</contour>
	</outline>
</glyph>
<glyph name="dieresistonos" format="2">
	<advance width="600"/>
	<unicode hex="0385"/>
	<anchor x="321.5" y="504" name="_top"/>
	<outline>
		<contour>
			<point x="135" y="579" type="curve" smooth="yes"/>
			<point x="170" y="579"/>
			<point x="198" y="607"/>
			<point x="198" y="642" type="curve" smooth="yes"/>
			<point x="198" y="677"/>
			<point x="170" y="705"/>
			<point x="135" y="705" type="curve" smooth="yes"/>
			<point x="100" y="705"/>
			<point x="72" y="677"/>
			<point x="72" y="642" type="curve" smooth="yes"/>
			<point x="72" y="607"/>
			<point x="100" y="579"/>
		</contour>
		<contour>
			<point x="508" y="579" type="curve" smooth="yes"/>
			<point x="543" y="579"/>
			<point x="571" y="607"/>
			<point x="571" y="642" type="curve" smooth="yes"/>
			<point x="571" y="677"/>
			<point x="543" y="705"/>
			<point x="508" y="705" type="curve" smooth="yes"/>
			<point x="473" y="705"/>
			<point x="445" y="677"/>
			<point x="445" y="642" type="curve" smooth="yes"/>
			<point x="445" y="607"/>
			<point x="473" y="579"/>
		</contour>
		<component base="acutecomb" xOffset="-48"/>
	</outline>
</glyph>
<glyph name="Delta" format="2">
	<advance width="692"/>
	<unicode hex="0394"/>
	<outline>
		<contour>
			<point x="55" y="90" type="line"/>
			<point x="55" y="0" type="line"/>
			<point x="637" y="0" type="line"/>
			<point x="637" y="90" type="line"/>
		</contour>
		<contour>
			<point x="536" y="90" type="line"/>
			<point x="637" y="90" type="line"/>
			<point x="396" y="752" type="line"/>
			<point x="295" y="752" type="line"/>
			<point x="55" y="90" type="line"/>
			<point x="156" y="90" type="line"/>
			<point x="346" y="622" type="line"/>
		</contour>
	</outline>
</glyph>
<glyph name="Theta" format="2">
	<advance width="800"/>
	<unicode hex="0398"/>
	<anchor x="400" y="376" name="center"/>
	<anchor x="482" y="-9" name="ogonek"/>
	<anchor x="401" y="772" name="top"/>
	<anchor x="781" y="772" name="topright"/>
	<anchor x="21" y="772" name="topleft"/>
	<anchor x="400" y="0" name="bottom"/>
	<outline>
		<contour>
			<point x="401" y="-14" type="curve" smooth="yes"/>
			<point x="653" y="-14"/>
			<point x="750" y="164"/>
			<point x="750" y="379" type="curve" smooth="yes"/>
			<point x="750" y="594"/>
			<point x="653" y="772"/>
			<point x="401" y="772" type="curve" smooth="yes"/>
			<point x="149" y="772"/>
			<point x="52" y="594"/>
			<point x="52" y="379" type="curve" smooth="yes"/>
			<point x="52" y="164"/>
			<point x="149" y="-14"/>
		</contour>
		<contour>
			<point x="401" y="76" type="curve" smooth="yes"/>
			<point x="217" y="76"/>
			<point x="148" y="197"/>
			<point x="148" y="379" type="curve" smooth="yes"/>
			<point x="148" y="560"/>
			<point x="217" y="683"/>
			<point x="401" y="683" type="curve" smooth="yes"/>
			<point x="586" y="683"/>
			<point x="654" y="560"/>
			<point x="654" y="379" type="curve" smooth="yes"/>
			<point x="654" y="207"/>
			<point x="586" y="76"/>
		</contour>
		<component base="macron" xOffset="106" yOffset="-258"/>
	</outline>
</glyph>
<glyph name="gamma" format="2">
	<advance width="600"/>
	<unicode hex="03B3"/>
	<outline>
		<contour>
			<point x="259" y="-278" type="line"/>
			<point x="365" y="-278" type="line"/>
			<point x="365" y="-14" type="line"/>
			<point x="429" y="55"/>
			<point x="549" y="242"/>
			<point x="549" y="381" type="curve" smooth="yes"/>
			<point x="549" y="439"/>
			<point x="548" y="459"/>
			<point x="535" y="504" type="curve"/>
			<point x="445" y="504" type="line"/>
			<point x="462" y="445"/>
			<point x="462" y="422"/>
			<point x="462" y="391" type="curve" smooth="yes"/>
			<point x="462" y="276"/>
			<point x="366" y="131"/>
			<point x="315" y="87" type="curve"/>
			<point x="153" y="504" type="line"/>
			<point x="54" y="504" type="line"/>
			<point x="259" y="-14" type="line"/>
		</contour>
	</outline>
</glyph>
<glyph name="epsilon" format="2">
	<advance width="508"/>
	<unicode hex="03B5"/>
	<anchor x="249" y="504" name="top"/>
	<outline>
		<contour>
			<point x="255" y="-14" type="curve" smooth="yes"/>
			<point x="400" y="-14"/>
			<point x="462" y="65"/>
			<point x="465" y="140" type="curve"/>
			<point x="376" y="140" type="line"/>
			<point x="372" y="101"/>
			<point x="336" y="67"/>
			<point x="255" y="67" type="curve" smooth="yes"/>
			<point x="182" y="67"/>
			<point x="137" y="97"/>
			<point x="137" y="142" type="curve" smooth="yes"/>
			<point x="137" y="200"/>
			<point x="181" y="222"/>
			<point x="259" y="222" type="curve" smooth="yes"/>
			<point x="340" y="222" type="line"/>
			<point x="340" y="300" type="line"/>
			<point x="259" y="300" type="line" smooth="yes"/>
			<point x="208" y="300"/>
			<point x="150" y="318"/>
			<point x="150" y="369" type="curve" smooth="yes"/>
			<point x="150" y="419"/>
			<point x="198" y="444"/>
			<point x="255" y="444" type="curve" smooth="yes"/>
			<point x="331" y="444"/>
			<point x="369" y="420"/>
			<point x="369" y="379" type="curve"/>
			<point x="455" y="379" type="line"/>
			<point x="455" y="466"/>
			<point x="378" y="518"/>
			<point x="255" y="518" type="curve" smooth="yes"/>
			<point x="121" y="518"/>
			<point x="64" y="464"/>
			<point x="64" y="377" type="curve" smooth="yes"/>
			<point x="64" y="327"/>
			<point x="86" y="292"/>
			<point x="124" y="267" type="curve"/>
			<point x="72" y="237"/>
			<point x="48" y="196"/>
			<point x="48" y="136" type="curve" smooth="yes"/>
			<point x="48" y="53"/>
			<point x="98" y="-14"/>
		</contour>
	</outline>
</glyph>
<glyph name="zeta" format="2">
	<advance width="600"/>
	<unicode hex="03B6"/>
	<outline>
		<contour>
			<point x="39" y="316" type="curve" smooth="yes"/>
			<point x="39" y="168"/>
			<point x="148" y="88"/>
			<point x="286" y="56" type="curve" smooth="yes"/>
			<point x="397" y="30"/>
			<point x="452" y="16"/>
			<point x="452" y="-82" type="curve" smooth="yes"/>
			<point x="452" y="-160"/>
			<point x="399" y="-187"/>
			<point x="359" y="-192" type="curve"/>
			<point x="379" y="-278" type="line"/>
			<point x="478" y="-261"/>
			<point x="547" y="-188"/>
			<point x="547" y="-75" type="curve" smooth="yes"/>
			<point x="547" y="53"/>
			<point x="453" y="111"/>
			<point x="358" y="134" type="curve" smooth="yes"/>
			<point x="191" y="174"/>
			<point x="134" y="229"/>
			<point x="134" y="332" type="curve" smooth="yes"/>
			<point x="134" y="462"/>
			<point x="267" y="540"/>
			<point x="420" y="628" type="curve" smooth="yes"/>
			<point x="487" y="667"/>
			<point x="531" y="695"/>
			<point x="531" y="748" type="curve"/>
			<point x="531" y="762" type="line"/>
			<point x="99" y="762" type="line"/>
			<point x="99" y="682" type="line"/>
			<point x="359" y="682" type="line"/>
			<point x="175" y="586"/>
			<point x="39" y="514"/>
		</contour>
	</outline>
</glyph>
<glyph name="lambda" format="2">
	<advance width="665"/>
	<unicode hex="03BB"/>
	<outline>
		<contour>
			<point x="605" y="0" type="curve" smooth="yes"/>
			<point x="626" y="0" type="line"/>
			<point x="617" y="91" type="line"/>
			<point x="601" y="90" type="line" smooth="yes"/>
			<point x="585" y="89"/>
			<point x="570" y="88"/>
			<point x="557" y="88" type="curve" smooth="yes"/>
			<point x="512" y="88"/>
			<point x="504" y="104"/>
			<point x="480" y="162" type="curve" smooth="yes"/>
			<point x="448" y="239"/>
			<point x="338" y="540"/>
			<point x="314" y="606" type="curve" smooth="yes"/>
			<point x="252" y="778"/>
			<point x="238" y="782"/>
			<point x="91" y="782" type="curve" smooth="yes"/>
			<point x="70" y="782" type="line"/>
			<point x="79" y="691" type="line"/>
			<point x="95" y="692" type="line" smooth="yes"/>
			<point x="111" y="693"/>
			<point x="126" y="694"/>
			<point x="139" y="694" type="curve" smooth="yes"/>
			<point x="185" y="694"/>
			<point x="194" y="680"/>
			<point x="217" y="613" type="curve" smooth="yes"/>
			<point x="239" y="549"/>
			<point x="349" y="252"/>
			<point x="381" y="174" type="curve" smooth="yes"/>
			<point x="450" y="6"/>
			<point x="458" y="0"/>
		</contour>
		<contour>
			<point x="22" y="0" type="line"/>
			<point x="127" y="0" type="line"/>
			<point x="332" y="455" type="line"/>
			<point x="279" y="531" type="line"/>
		</contour>
	</outline>
</glyph>
<glyph name="nu" format="2">
	<advance width="606"/>
	<unicode hex="03BD"/>
	<outline>
		<contour>
			<point x="259" y="0" type="line"/>
			<point x="365" y="0" type="line"/>
			<point x="429" y="69"/>
			<point x="549" y="242"/>
			<point x="549" y="381" type="curve" smooth="yes"/>
			<point x="549" y="439"/>
			<point x="548" y="459"/>
			<point x="535" y="504" type="curve"/>
			<point x="445" y="504" type="line"/>
			<point x="462" y="445"/>
			<point x="462" y="422"/>
			<point x="462" y="391" type="curve" smooth="yes"/>
			<point x="462" y="276"/>
			<point x="365" y="140"/>
			<point x="314" y="96" type="curve"/>
			<point x="153" y="504" type="line"/>
			<point x="54" y="504" type="line"/>
		</contour>
	</outline>
</glyph>
<glyph name="xi" format="2">
	<advance width="560"/>
	<unicode hex="03BE"/>
	<outline>
		<contour>
			<point x="49" y="512" type="curve" smooth="yes"/>
			<point x="49" y="418"/>
			<point x="92" y="363"/>
			<point x="196" y="350" type="curve"/>
			<point x="109" y="321"/>
			<point x="31" y="292"/>
			<point x="31" y="193" type="curve" smooth="yes"/>
			<point x="31" y="74"/>
			<point x="103" y="20"/>
			<point x="318" y="-2" type="curve" smooth="yes"/>
			<point x="426" y="-13"/>
			<point x="453" y="-43"/>
			<point x="453" y="-103" type="curve" smooth="yes"/>
			<point x="453" y="-177"/>
			<point x="399" y="-187"/>
			<point x="359" y="-192" type="curve"/>
			<point x="379" y="-278" type="line"/>
			<point x="478" y="-261"/>
			<point x="548" y="-205"/>
			<point x="548" y="-96" type="curve" smooth="yes"/>
			<point x="548" y="-23"/>
			<point x="498" y="63"/>
			<point x="381" y="78" type="curve" smooth="yes"/>
			<point x="157" y="107"/>
			<point x="127" y="121"/>
			<point x="127" y="194" type="curve" smooth="yes"/>
			<point x="127" y="258"/>
			<point x="208" y="306"/>
			<point x="392" y="306" type="curve" smooth="yes"/>
			<point x="446" y="306"/>
			<point x="446" y="395"/>
			<point x="390" y="395" type="curve" smooth="yes"/>
			<point x="211" y="395"/>
			<point x="143" y="420"/>
			<point x="143" y="508" type="curve" smooth="yes"/>
			<point x="143" y="592"/>
			<point x="191" y="608"/>
			<point x="403" y="673" type="curve" smooth="yes"/>
			<point x="476" y="695"/>
			<point x="531" y="736"/>
			<point x="531" y="768" type="curve"/>
			<point x="531" y="782" type="line"/>
			<point x="69" y="782" type="line"/>
			<point x="69" y="702" type="line"/>
			<point x="289" y="702" type="line"/>
			<point x="150" y="670"/>
			<point x="49" y="630"/>
		</contour>
	</outline>
</glyph>
<glyph name="pi" format="2">
	<advance width="671"/>
	<unicode hex="03C0"/>
	<outline>
		<contour>
			<point x="50" y="424" type="line"/>
			<point x="609" y="424" type="line"/>
			<point x="609" y="504" type="line"/>
			<point x="50" y="504" type="line"/>
		</contour>
		<contour>
			<point x="148" y="504" type="line"/>
			<point x="148" y="0" type="line"/>
			<point x="239" y="0" type="line"/>
			<point x="239" y="504" type="line"/>
		</contour>
		<component base="iota" xOffset="334"/>
	</outline>
</glyph>
<glyph name="sigmafinal" format="2">
	<advance width="604"/>
	<unicode hex="03C2"/>
	<outline>
		<contour>
			<point x="473" y="315" type="curve"/>
			<point x="568" y="315" type="line"/>
			<point x="568" y="395"/>
			<point x="521" y="524"/>
			<point x="315" y="524" type="curve" smooth="yes"/>
			<point x="114" y="524"/>
			<point x="39" y="386"/>
			<point x="39" y="276" type="curve" smooth="yes"/>
			<point x="39" y="121"/>
			<point x="158" y="39"/>
			<point x="286" y="33" type="curve" smooth="yes"/>
			<point x="400" y="28"/>
			<point x="452" y="-4"/>
			<point x="452" y="-82" type="curve" smooth="yes"/>
			<point x="452" y="-160"/>
			<point x="399" y="-187"/>
			<point x="359" y="-192" type="curve"/>
			<point x="379" y="-278" type="line"/>
			<point x="478" y="-261"/>
			<point x="547" y="-188"/>
			<point x="547" y="-75" type="curve" smooth="yes"/>
			<point x="547" y="33"/>
			<point x="456" y="104"/>
			<point x="358" y="111" type="curve" smooth="yes"/>
			<point x="201" y="123"/>
			<point x="133" y="170"/>
			<point x="133" y="267" type="curve" smooth="yes"/>
			<point x="133" y="370"/>
			<point x="204" y="434"/>
			<point x="315" y="434" type="curve" smooth="yes"/>
			<point x="430" y="434"/>
			<point x="473" y="380"/>
		</contour>
	</outline>
</glyph>
<glyph name="upsilon" format="2">
	<advance width="623"/>
	<unicode hex="03C5"/>
	<anchor x="312" y="504" name="top"/>
	<outline>
		<contour>
			<point x="304" y="-14" type="curve" smooth="yes"/>
			<point x="439" y="-14"/>
			<point x="556" y="64"/>
			<point x="556" y="242" type="curve" smooth="yes"/>
			<point x="556" y="354"/>
			<point x="528" y="439"/>
			<point x="499" y="504" type="curve"/>
			<point x="401" y="504" type="line"/>
			<point x="457" y="390"/>
			<point x="466" y="317"/>
			<point x="467" y="252" type="curve" smooth="yes"/>
			<point x="469" y="117"/>
			<point x="385" y="77"/>
			<point x="304" y="77" type="curve" smooth="yes"/>
			<point x="208" y="77"/>
			<point x="159" y="102"/>
			<point x="159" y="201" type="curve" smooth="yes"/>
			<point x="159" y="504" type="line"/>
			<point x="67" y="504" type="line"/>
			<point x="67" y="197" type="line" smooth="yes"/>
			<point x="67" y="56"/>
			<point x="149" y="-14"/>
		</contour>
	</outline>
</glyph>
<glyph name="Dje-cy" format="2">
	<advance width="818"/>
	<unicode hex="0402"/>
	<outline>
		<contour>
			<point x="553" y="0" type="line"/>
			<point x="571" y="0" type="line" smooth="yes"/>
			<point x="742" y="0"/>
			<point x="777" y="110"/>
			<point x="777" y="235" type="curve" smooth="yes"/>
			<point x="777" y="364"/>
			<point x="694" y="450"/>
			<point x="553" y="450" type="curve" smooth="yes"/>
			<point x="448" y="450"/>
			<point x="388" y="408"/>
			<point x="372" y="377" type="curve"/>
			<point x="372" y="229" type="line" smooth="yes"/>
			<point x="372" y="217"/>
			<point x="373" y="258"/>
			<point x="374" y="264" type="curve" smooth="yes"/>
			<point x="382" y="325"/>
			<point x="462" y="360"/>
			<point x="536" y="360" type="curve" smooth="yes"/>
			<point x="619" y="360"/>
			<point x="686" y="331"/>
			<point x="686" y="231" type="curve" smooth="yes"/>
			<point x="686" y="162"/>
			<point x="665" y="88"/>
			<point x="567" y="93" type="curve" smooth="yes"/>
			<point x="547" y="94" type="line"/>
		</contour>
		<component base="T"/>
	</outline>
</glyph>
<glyph name="E-cy" format="2">
	<advance width="706"/>
	<unicode hex="0404"/>
	<outline>
		<contour>
			<point x="147" y="341" type="line"/>
			<point x="476" y="341" type="line"/>
			<point x="476" y="431" type="line"/>
			<point x="147" y="431" type="line"/>
		</contour>
		<component base="C"/>
	</outline>
</glyph>
<glyph name="Lje-cy" format="2">
	<advance width="1149"/>
	<unicode hex="0409"/>
	<outline>
		<contour>
			<point x="580" y="0" type="line"/>
			<point x="674" y="0" type="line"/>
			<point x="674" y="752" type="line"/>
			<point x="247" y="752" type="line"/>
			<point x="247" y="662" type="line"/>
			<point x="580" y="662" type="line"/>
		</contour>
		<contour>
			<point x="30" y="94" type="curve"/>
			<point x="26" y="0" type="line"/>
			<point x="216" y="0"/>
			<point x="246" y="30"/>
			<point x="282" y="246" type="curve" smooth="yes"/>
			<point x="307" y="393"/>
			<point x="320" y="587"/>
			<point x="320" y="752" type="curve"/>
			<point x="228" y="752" type="line"/>
			<point x="228" y="585"/>
			<point x="217" y="398"/>
			<point x="189" y="251" type="curve" smooth="yes"/>
			<point x="161" y="105"/>
			<point x="143" y="91"/>
		</contour>
		<contour>
			<point x="580" y="0" type="line"/>
			<point x="882" y="0" type="line" smooth="yes"/>
			<point x="997" y="0"/>
			<point x="1103" y="63"/>
			<point x="1103" y="209" type="curve" smooth="yes"/>
			<point x="1103" y="365"/>
			<point x="1007" y="432"/>
			<point x="882" y="432" type="curve"/>
			<point x="674" y="432" type="line"/>
			<point x="674" y="752" type="line"/>
			<point x="580" y="752" type="line"/>
		</contour>
		<contour>
			<point x="674" y="90" type="line"/>
			<point x="674" y="342" type="line"/>
			<point x="865" y="342" type="line" smooth="yes"/>
			<point x="953" y="342"/>
			<point x="1008" y="314"/>
			<point x="1008" y="209" type="curve" smooth="yes"/>
			<point x="1008" y="115"/>
			<point x="952" y="90"/>
			<point x="868" y="90" type="curve" smooth="yes"/>
		</contour>
	</outline>
</glyph>
<glyph name="Dzhe-cy" format="2">
	<advance width="724"/>
	<unicode hex="040F"/>
	<outline>
		<contour>
			<point x="320" y="-130" type="line"/>
			<point x="405" y="-130" type="line"/>
			<point x="405" y="0" type="line"/>
			<point x="320" y="0" type="line"/>
		</contour>
		<contour>
			<point x="78" y="0" type="line"/>
			<point x="646" y="0" type="line"/>
			<point x="646" y="752" type="line"/>
			<point x="552" y="752" type="line"/>
			<point x="552" y="90" type="line"/>
			<point x="172" y="90" type="line"/>
			<point x="172" y="752" type="line"/>
			<point x="78" y="752" type="line"/>
		</contour>
	</outline>
</glyph>
<glyph name="Ii-cy" format="2">
	<advance width="772"/>
	<unicode hex="0418"/>
	<anchor x="386" y="752" name="top"/>
	<anchor x="752" y="0" name="bottomright"/>
	<outline>
		<contour>
			<point x="78" y="0" type="line"/>
			<point x="172" y="0" type="line"/>
			<point x="600" y="581" type="line"/>
			<point x="600" y="0" type="line"/>
			<point x="694" y="0" type="line"/>
			<point x="694" y="752" type="line"/>
			<point x="600" y="752" type="line"/>
			<point x="172" y="166" type="line"/>
			<point x="172" y="752" type="line"/>
			<point x="78" y="752" type="line"/>
		</contour>
	</outline>
</glyph>
<glyph name="Ka-cy" format="2">
	<advance width="692"/>
	<unicode hex="041A"/>
	<anchor x="346" y="752" name="top"/>
	<anchor x="672" y="0" name="bottomright"/>
	<outline>
		<contour>
			<point x="223" y="331" type="line"/>
			<point x="625" y="752" type="line"/>
			<point x="507" y="752" type="line"/>
			<point x="137" y="366" type="line"/>
		</contour>
		<contour>
			<point x="78" y="0" type="line"/>
			<point x="172" y="0" type="line"/>
			<point x="172" y="752" type="line"/>
			<point x="78" y="752" type="line"/>
		</contour>
		<contour>
			<point x="527" y="0" type="line"/>
			<point x="649" y="0" type="line"/>
			<point x="255" y="418" type="line"/>
			<point x="184" y="361" type="line"/>
		</contour>
		<contour>
			<point x="89" y="330" type="line"/>
			<point x="274" y="330" type="line"/>
			<point x="274" y="420" type="line"/>
			<point x="89" y="420" type="line"/>
		</contour>
	</outline>
</glyph>
<glyph name="U-cy" format="2">
	<advance width="681"/>
	<unicode hex="0423"/>
	<anchor x="341" y="752" name="top"/>
	<outline>
		<contour>
			<point x="111" y="-14" type="line"/>
			<point x="217" y="-14" type="line" smooth="yes"/>
			<point x="298" y="-14"/>
			<point x="307" y="0"/>
			<point x="376" y="155" type="curve" smooth="yes"/>
			<point x="642" y="752" type="line"/>
			<point x="534" y="752" type="line"/>
			<point x="346" y="325" type="line"/>
			<point x="152" y="752" type="line"/>
			<point x="43" y="752" type="line"/>
			<point x="301" y="212" type="line"/>
			<point x="272" y="147" type="line" smooth="yes"/>
			<point x="244" y="84"/>
			<point x="223" y="76"/>
			<point x="162" y="77" type="curve" smooth="yes"/>
			<point x="114" y="78" type="line"/>
		</contour>
	</outline>
</glyph>
<glyph name="Ef-cy" format="2">
	<advance width="768"/>
	<unicode hex="0424"/>
	<outline>
		<contour>
			<point x="384" y="63" type="curve" smooth="yes"/>
			<point x="583" y="63"/>
			<point x="753" y="150"/>
			<point x="753" y="383" type="curve" smooth="yes"/>
			<point x="753" y="616"/>
			<point x="583" y="703"/>
			<point x="384" y="703" type="curve" smooth="yes"/>
			<point x="185" y="703"/>
			<point x="15" y="616"/>
			<point x="15" y="383" type="curve" smooth="yes"/>
			<point x="15" y="150"/>
			<point x="185" y="63"/>
		</contour>
		<contour>
			<point x="384" y="149" type="curve" smooth="yes"/>
			<point x="225" y="149"/>
			<point x="104" y="212"/>
			<point x="104" y="383" type="curve" smooth="yes"/>
			<point x="104" y="553"/>
			<point x="216" y="617"/>
			<point x="384" y="617" type="curve" smooth="yes"/>
			<point x="551" y="617"/>
			<point x="665" y="553"/>
			<point x="665" y="383" type="curve" smooth="yes"/>
			<point x="665" y="212"/>
			<point x="551" y="149"/>
		</contour>
		<contour>
			<point x="337" y="0" type="line"/>
			<point x="431" y="0" type="line"/>
			<point x="431" y="752" type="line"/>
			<point x="337" y="752" type="line"/>
		</contour>
	</outline>
</glyph>
<glyph name="Sha-cy" format="2">
	<advance width="1014"/>
	<unicode hex="0428"/>
	<outline>
		<contour>
			<point x="842" y="752" type="line"/>
			<point x="842" y="0" type="line"/>
			<point x="936" y="0" type="line"/>
			<point x="936" y="752" type="line"/>
		</contour>
		<contour>
			<point x="78" y="752" type="line"/>
			<point x="78" y="0" type="line"/>
			<point x="172" y="0" type="line"/>
			<point x="172" y="752" type="line"/>
		</contour>
		<contour>
			<point x="78" y="90" type="line"/>
			<point x="78" y="0" type="line"/>
			<point x="936" y="0" type="line"/>
			<point x="936" y="90" type="line"/>
		</contour>
		<contour>
			<point x="460" y="752" type="line"/>
			<point x="460" y="0" type="line"/>
			<point x="554" y="0" type="line"/>
			<point x="554" y="752" type="line"/>
		</contour>
	</outline>
</glyph>
<glyph name="Ereversed-cy" format="2">
	<advance width="706"/>
	<unicode hex="042D"/>
	<outline>
		<contour>
			<point x="230" y="341" type="line"/>
			<point x="559" y="341" type="line"/>
			<point x="559" y="431" type="line"/>
			<point x="230" y="431" type="line"/>
		</contour>
		<component base="C" xScale="-1" xOffset="706"/>
	</outline>
</glyph>
<glyph name="ve-cy" format="2">
	<advance width="564"/>
	<unicode hex="0432"/>
	<outline>
		<contour>
			<point x="78" y="0" type="line"/>
			<point x="336" y="0" type="line" smooth="yes"/>
			<point x="452" y="0"/>
			<point x="510" y="61"/>
			<point x="510" y="149" type="curve" smooth="yes"/>
			<point x="510" y="231"/>
			<point x="448" y="262"/>
			<point x="415" y="262" type="curve"/>
			<point x="431" y="262"/>
			<point x="498" y="283"/>
			<point x="498" y="367" type="curve" smooth="yes"/>
			<point x="498" y="451"/>
			<point x="441" y="504"/>
			<point x="318" y="504" type="curve" smooth="yes"/>
			<point x="78" y="504" type="line"/>
		</contour>
		<contour>
			<point x="169" y="77" type="line"/>
			<point x="169" y="220" type="line"/>
			<point x="324" y="220" type="line" smooth="yes"/>
			<point x="384" y="220"/>
			<point x="417" y="209"/>
			<point x="417" y="149" type="curve" smooth="yes"/>
			<point x="417" y="98"/>
			<point x="383" y="77"/>
			<point x="326" y="77" type="curve" smooth="yes"/>
		</contour>
		<contour>
			<point x="169" y="300" type="line"/>
			<point x="169" y="429" type="line"/>
			<point x="321" y="429" type="line" smooth="yes"/>
			<point x="373" y="429"/>
			<point x="406" y="418"/>
			<point x="406" y="363" type="curve" smooth="yes"/>
			<point x="406" y="313"/>
			<point x="385" y="300"/>
			<point x="322" y="300" type="curve" smooth="yes"/>
		</contour>
	</outline>
</glyph>
<glyph name="el-cy" format="2">
	<advance width="622"/>
	<unicode hex="043B"/>
	<outline>
		<contour>
			<point x="453" y="0" type="line"/>
			<point x="544" y="0" type="line"/>
			<point x="544" y="504" type="line"/>
			<point x="227" y="504" type="line"/>
			<point x="227" y="424" type="line"/>
			<point x="453" y="424" type="line"/>
		</contour>
		<contour>
			<point x="31" y="81" type="curve"/>
			<point x="28" y="0" type="line"/>
			<point x="193" y="0"/>
			<point x="209" y="19"/>
			<point x="233" y="185" type="curve" smooth="yes"/>
			<point x="247" y="284"/>
			<point x="258" y="393"/>
			<point x="258" y="504" type="curve"/>
			<point x="172" y="504" type="line"/>
			<point x="172" y="392"/>
			<point x="165" y="287"/>
			<point x="146" y="189" type="curve" smooth="yes"/>
			<point x="129" y="99"/>
			<point x="114" y="78"/>
		</contour>
	</outline>
</glyph>
<glyph name="em-cy" format="2">
	<advance width="772"/>
	<unicode hex="043C"/>
	<outline>
		<contour>
			<point x="78" y="0" type="line"/>
			<point x="169" y="0" type="line"/>
			<point x="169" y="356" type="line"/>
			<point x="359" y="65" type="line"/>
			<point x="420" y="65" type="line"/>
			<point x="603" y="356" type="line"/>
			<point x="603" y="0" type="line"/>
			<point x="694" y="0" type="line"/>
			<point x="694" y="504" type="line"/>
			<point x="603" y="504" type="line"/>
			<point x="389" y="161" type="line"/>
			<point x="169" y="504" type="line"/>
			<point x="78" y="504" type="line"/>
		</contour>
	</outline>
</glyph>
<glyph name="en-cy" format="2">
	<advance width="635"/>
	<unicode hex="043D"/>
	<anchor x="615" y="0" name="bottomright"/>
	<outline>
		<contour>
			<point x="78" y="0" type="line"/>
			<point x="169" y="0" type="line"/>
			<point x="169" y="223" type="line"/>
			<point x="466" y="223" type="line"/>
			<point x="466" y="0" type="line"/>
			<point x="557" y="0" type="line"/>
			<point x="557" y="504" type="line"/>
			<point x="466" y="504" type="line"/>
			<point x="466" y="308" type="line"/>
			<point x="169" y="308" type="line"/>
			<point x="169" y="504" type="line"/>
			<point x="78" y="504" type="line"/>
		</contour>
	</outline>
</glyph>
<glyph name="pe-cy" format="2">
	<advance width="632"/>
	<unicode hex="043F"/>
	<anchor x="612" y="0" name="bottomright"/>
	<outline>
		<contour>
			<point x="463" y="0" type="line"/>
			<point x="554" y="0" type="line"/>
			<point x="554" y="504" type="line"/>
			<point x="463" y="504" type="line"/>
		</contour>
		<contour>
			<point x="78" y="0" type="line"/>
			<point x="169" y="0" type="line"/>
			<point x="169" y="504" type="line"/>
			<point x="78" y="504" type="line"/>
		</contour>
		<contour>
			<point x="78" y="424" type="line"/>
			<point x="539" y="424" type="line"/>
			<point x="539" y="504" type="line"/>
			<point x="78" y="504" type="line"/>
		</contour>
	</outline>
</glyph>
<glyph name="shcha-cy" format="2">
	<advance width="977"/>
	<unicode hex="0449"/>
	<outline>
		<contour>
			<point x="742" y="504" type="line"/>
			<point x="742" y="0" type="line"/>
			<point x="833" y="0" type="line"/>
			<point x="833" y="504" type="line"/>
		</contour>
		<contour>
			<point x="78" y="504" type="line"/>
			<point x="78" y="0" type="line"/>
			<point x="169" y="0" type="line"/>
			<point x="169" y="504" type="line"/>
		</contour>
		<contour>
			<point x="92" y="80" type="line"/>
			<point x="92" y="0" type="line"/>
			<point x="899" y="0" type="line"/>
			<point x="899" y="80" type="line"/>
		</contour>
		<contour>
			<point x="410" y="504" type="line"/>
			<point x="410" y="0" type="line"/>
			<point x="501" y="0" type="line"/>
			<point x="501" y="504" type="line"/>
		</contour>
		<contour>
			<point x="816" y="-130" type="line"/>
			<point x="899" y="-130" type="line"/>
			<point x="899" y="0" type="line"/>
			<point x="816" y="0" type="line"/>
		</contour>
	</outline>
</glyph>
<glyph name="hardsign-cy" format="2">
	<advance width="628"/>
	<unicode hex="044A"/>
	<outline>
		<contour>
			<point x="162" y="0" type="line"/>
			<point x="400" y="0" type="line" smooth="yes"/>
			<point x="516" y="0"/>
			<point x="574" y="61"/>
			<point x="574" y="149" type="curve" smooth="yes"/>
			<point x="574" y="222"/>
			<point x="533" y="300"/>
			<point x="386" y="300" type="curve" smooth="yes"/>
			<point x="253" y="300" type="line"/>
			<point x="253" y="504" type="line"/>
			<point x="162" y="504" type="line"/>
		</contour>
		<contour>
			<point x="253" y="77" type="line"/>
			<point x="253" y="220" type="line"/>
			<point x="388" y="220" type="line" smooth="yes"/>
			<point x="448" y="220"/>
			<point x="481" y="209"/>
			<point x="481" y="149" type="curve" smooth="yes"/>
			<point x="481" y="94"/>
			<point x="447" y="77"/>
			<point x="390" y="77" type="curve" smooth="yes"/>
		</contour>
		<contour>
			<point x="30" y="421" type="line"/>
			<point x="162" y="421" type="line"/>
			<point x="162" y="504" type="line"/>
			<point x="30" y="504" type="line"/>
		</contour>
	</outline>
</glyph>
<glyph name="ia-cy" format="2">
	<advance width="550"/>
	<unicode hex="044F"/>
	<outline>
		<contour>
			<point x="381" y="0" type="line"/>
			<point x="472" y="0" type="line"/>
			<point x="472" y="504" type="line"/>
			<point x="247" y="504" type="line" smooth="yes"/>
			<point x="124" y="504"/>
			<point x="56" y="473"/>
			<point x="56" y="357" type="curve" smooth="yes"/>
			<point x="56" y="240"/>
			<point x="133" y="206"/>
			<point x="247" y="206" type="curve" smooth="yes"/>
			<point x="381" y="206" type="line"/>
		</contour>
		<contour>
			<point x="33" y="0" type="curve"/>
			<point x="132" y="0" type="line"/>
			<point x="138" y="11"/>
			<point x="143" y="28"/>
			<point x="148" y="49" type="curve" smooth="yes"/>
			<point x="164" y="122" type="line" smooth="yes"/>
			<point x="182" y="202"/>
			<point x="230" y="206"/>
			<point x="270" y="206" type="curve"/>
			<point x="219" y="271" type="line"/>
			<point x="148" y="271"/>
			<point x="93" y="207"/>
			<point x="73" y="125" type="curve" smooth="yes"/>
			<point x="56" y="55" type="line" smooth="yes"/>
			<point x="50" y="29"/>
			<point x="41" y="13"/>
		</contour>
		<contour>
			<point x="238" y="286" type="line" smooth="yes"/>
			<point x="171" y="286"/>
			<point x="140" y="302"/>
			<point x="140" y="352" type="curve" smooth="yes"/>
			<point x="140" y="408"/>
			<point x="164" y="424"/>
			<point x="240" y="424" type="curve" smooth="yes"/>
			<point x="381" y="424" type="line"/>
			<point x="381" y="286" type="line"/>
		</contour>
	</outline>
</glyph>
<glyph name="dje-cy" format="2">
	<advance width="631"/>
	<unicode hex="0452"/>
	<outline>
		<contour>
			<point x="74" y="0" type="line"/>
			<point x="165" y="0" type="line"/>
			<point x="165" y="782" type="line"/>
			<point x="74" y="782" type="line"/>
		</contour>
		<contour>
			<point x="4" y="644" type="line"/>
			<point x="300" y="644" type="line"/>
			<point x="300" y="718" type="line"/>
			<point x="4" y="718" type="line"/>
		</contour>
		<component base="eng" xOffset="-4"/>
	</outline>
</glyph>
<glyph name="e-cy" format="2">
	<advance width="560"/>
	<unicode hex="0454"/>
	<outline>
		<contour>
			<point x="138" y="224" type="line"/>
			<point x="415" y="224" type="line"/>
			<point x="415" y="309" type="line"/>
			<point x="138" y="309" type="line"/>
		</contour>
		<component base="c"/>
	</outline>
</glyph>
<glyph name="lje-cy" format="2">
	<advance width="919"/>
	<unicode hex="0459"/>
	<outline>
		<contour>
			<point x="453" y="0" type="line"/>
			<point x="691" y="0" type="line" smooth="yes"/>
			<point x="807" y="0"/>
			<point x="865" y="61"/>
			<point x="865" y="149" type="curve" smooth="yes"/>
			<point x="865" y="222"/>
			<point x="824" y="300"/>
			<point x="677" y="300" type="curve" smooth="yes"/>
			<point x="544" y="300" type="line"/>
			<point x="544" y="504" type="line"/>
			<point x="453" y="504" type="line"/>
		</contour>
		<contour>
			<point x="544" y="77" type="line"/>
			<point x="544" y="220" type="line"/>
			<point x="679" y="220" type="line" smooth="yes"/>
			<point x="739" y="220"/>
			<point x="772" y="209"/>
			<point x="772" y="149" type="curve" smooth="yes"/>
			<point x="772" y="94"/>
			<point x="738" y="77"/>
			<point x="681" y="77" type="curve" smooth="yes"/>
		</contour>
		<component base="el-cy"/>
	</outline>
</glyph>
<glyph name="Yusbig-cy" format="2">
	<advance width="1124"/>
	<unicode hex="046A"/>
	<outline>
		<contour>
			<point x="956" y="0" type="line"/>
			<point x="1081" y="0" type="line"/>
			<point x="687" y="418" type="line"/>
			<point x="622" y="361" type="line"/>
		</contour>
		<contour>
			<point x="43" y="0" type="line"/>
			<point x="168" y="0" type="line"/>
			<point x="502" y="361" type="line"/>
			<point x="437" y="418" type="line"/>
		</contour>
		<contour>
			<point x="515" y="0" type="line"/>
			<point x="609" y="0" type="line"/>
			<point x="609" y="412" type="line"/>
			<point x="515" y="412" type="line"/>
		</contour>
		<contour>
			<point x="415" y="341" type="line"/>
			<point x="709" y="341" type="line"/>
			<point x="709" y="394" type="line"/>
			<point x="687" y="418" type="line"/>
			<point x="437" y="418" type="line"/>
			<point x="415" y="394" type="line"/>
		</contour>
		<contour>
			<point x="491" y="374" type="line"/>
			<point x="630" y="374" type="line"/>
			<point x="880" y="672" type="line"/>
			<point x="760" y="672" type="line"/>
			<point x="561" y="422" type="line"/>
			<point x="365" y="672" type="line"/>
			<point x="245" y="672" type="line"/>
		</contour>
		<contour>
			<point x="245" y="672" type="line"/>
			<point x="880" y="672" type="line"/>
			<point x="880" y="752" type="line"/>
			<point x="245" y="752" type="line"/>
		</contour>
	</outline>
</glyph>
<glyph name="gheupturn-cy" format="2">
	<advance width="513"/>
	<unicode hex="0491"/>
	<outline>
		<contour>
			<point x="78" y="0" type="line"/>
			<point x="169" y="0" type="line"/>
			<point x="169" y="424" type="line"/>
			<point x="473" y="424" type="line"/>
			<point x="473" y="504" type="line"/>
			<point x="78" y="504" type="line"/>
		</contour>
		<contour>
			<point x="390" y="504" type="line"/>
			<point x="473" y="504" type="line"/>
			<point x="473" y="634" type="line"/>
			<point x="390" y="634" type="line"/>
		</contour>
	</outline>
</glyph>
<glyph name="quotedblright" format="2">
	<advance width="560"/>
	<unicode hex="201D"/>
	<outline>
		<contour>
			<point x="88" y="513" type="curve"/>
			<point x="94" y="513" type="line" smooth="yes"/>
			<point x="116" y="513"/>
			<point x="230" y="543"/>
			<point x="221" y="718" type="curve" smooth="yes"/>
			<point x="219" y="757"/>
			<point x="194" y="782"/>
			<point x="157" y="782" type="curve" smooth="yes"/>
			<point x="119" y="782"/>
			<point x="91" y="757"/>
			<point x="91" y="718" type="curve" smooth="yes"/>
			<point x="91" y="640"/>
			<point x="163" y="647"/>
		</contour>
		<contour>
			<point x="279" y="513" type="curve"/>
			<point x="286" y="513" type="line" smooth="yes"/>
			<point x="310" y="513"/>
			<point x="438" y="562"/>
			<point x="430" y="718" type="curve" smooth="yes"/>
			<point x="428" y="757"/>
			<point x="404" y="782"/>
			<point x="365" y="782" type="curve" smooth="yes"/>
			<point x="328" y="782"/>
			<point x="300" y="757"/>
			<point x="300" y="718" type="curve" smooth="yes"/>
			<point x="300" y="660"/>
			<point x="368" y="659"/>
		</contour>
	</outline>
</glyph>
<glyph name="daggerdbl" format="2">
	<advance width="538"/>
	<unicode hex="2021"/>
	<outline>
		<contour>
			<point x="221" y="-198" type="curve"/>
			<point x="317" y="-198" type="line"/>
			<point x="306" y="119"/>
			<point x="306" y="435"/>
			<point x="317" y="752" type="curve"/>
			<point x="221" y="752" type="line"/>
			<point x="232" y="435"/>
			<point x="232" y="119"/>
		</contour>
		<contour>
			<point x="45" y="373" type="line"/>
			<point x="194" y="375"/>
			<point x="344" y="375"/>
			<point x="493" y="373" type="curve"/>
			<point x="493" y="461" type="line"/>
			<point x="344" y="459"/>
			<point x="194" y="459"/>
			<point x="45" y="461" type="curve"/>
		</contour>
		<contour>
			<point x="45" y="95" type="line"/>
			<point x="194" y="97"/>
			<point x="344" y="97"/>
			<point x="493" y="95" type="curve"/>
			<point x="493" y="183" type="line"/>
			<point x="344" y="181"/>
			<point x="194" y="181"/>
			<point x="45" y="183" type="curve"/>
		</contour>
	</outline>
</glyph>
<glyph name="perthousand" format="2">
	<advance width="1316"/>
	<unicode hex="2030"/>
	<outline>
		<contour>
			<point x="682" y="752" type="line"/>
			<point x="118" y="0" type="line"/>
			<point x="217" y="0" type="line"/>
			<point x="781" y="752" type="line"/>
		</contour>
		<contour>
			<point x="211" y="392" type="curve" smooth="yes"/>
			<point x="338" y="392"/>
			<point x="385" y="461"/>
			<point x="385" y="577" type="curve" smooth="yes"/>
			<point x="385" y="693"/>
			<point x="338" y="762"/>
			<point x="211" y="762" type="curve" smooth="yes"/>
			<point x="83" y="762"/>
			<point x="36" y="693"/>
			<point x="36" y="577" type="curve" smooth="yes"/>
			<point x="36" y="461"/>
			<point x="83" y="392"/>
		</contour>
		<contour>
			<point x="211" y="461" type="curve" smooth="yes"/>
			<point x="136" y="461"/>
			<point x="108" y="494"/>
			<point x="108" y="577" type="curve" smooth="yes"/>
			<point x="108" y="661"/>
			<point x="136" y="694"/>
			<point x="211" y="694" type="curve" smooth="yes"/>
			<point x="285" y="694"/>
			<point x="313" y="661"/>
			<point x="313" y="577" type="curve" smooth="yes"/>
			<point x="313" y="494"/>
			<point x="285" y="461"/>
		</contour>
		<contour>
			<point x="688" y="-14" type="curve" smooth="yes"/>
			<point x="815" y="-14"/>
			<point x="862" y="55"/>
			<point x="862" y="171" type="curve" smooth="yes"/>
			<point x="862" y="287"/>
			<point x="815" y="356"/>
			<point x="688" y="356" type="curve" smooth="yes"/>
			<point x="560" y="356"/>
			<point x="513" y="287"/>
			<point x="513" y="171" type="curve" smooth="yes"/>
			<point x="513" y="55"/>
			<point x="560" y="-14"/>
		</contour>
		<contour>
			<point x="688" y="55" type="curve" smooth="yes"/>
			<point x="613" y="55"/>
			<point x="585" y="88"/>
			<point x="585" y="171" type="curve" smooth="yes"/>
			<point x="585" y="255"/>
			<point x="613" y="288"/>
			<point x="688" y="288" type="curve" smooth="yes"/>
			<point x="762" y="288"/>
			<point x="790" y="255"/>
			<point x="790" y="171" type="curve" smooth="yes"/>
			<point x="790" y="88"/>
			<point x="762" y="55"/>
		</contour>
		<contour>
			<point x="1112" y="-14" type="curve" smooth="yes"/>
			<point x="1239" y="-14"/>
			<point x="1286" y="55"/>
			<point x="1286" y="171" type="curve" smooth="yes"/>
			<point x="1286" y="287"/>
			<point x="1239" y="356"/>
			<point x="1112" y="356" type="curve" smooth="yes"/>
			<point x="984" y="356"/>
			<point x="937" y="287"/>
			<point x="937" y="171" type="curve" smooth="yes"/>
			<point x="937" y="55"/>
			<point x="984" y="-14"/>
		</contour>
		<contour>
			<point x="1112" y="55" type="curve" smooth="yes"/>
			<point x="1037" y="55"/>
			<point x="1009" y="88"/>
			<point x="1009" y="171" type="curve" smooth="yes"/>
			<point x="1009" y="255"/>
			<point x="1037" y="288"/>
			<point x="1112" y="288" type="curve" smooth="yes"/>
			<point x="1186" y="288"/>
			<point x="1214" y="255"/>
			<point x="1214" y="171" type="curve" smooth="yes"/>
			<point x="1214" y="88"/>
			<point x="1186" y="55"/>
		</contour>
	</outline>
</glyph>
<glyph name="oneinferior" format="2">
	<advance width="227"/>
	<unicode hex="2081"/>
	<outline>
		<contour>
			<point x="107" y="-136" type="line"/>
			<point x="184" y="-136" type="line"/>
			<point x="184" y="316" type="line"/>
			<point x="107" y="316" type="line"/>
		</contour>
		<contour>
			<point x="15" y="172" type="line"/>
			<point x="45" y="186"/>
			<point x="79" y="207"/>
			<point x="108" y="232" type="curve"/>
			<point x="108" y="316" type="line"/>
			<point x="78" y="290"/>
			<point x="45" y="270"/>
			<point x="15" y="257" type="curve"/>
		</contour>
	</outline>
</glyph>
<glyph name="fourinferior" format="2">
	<advance width="375"/>
	<unicode hex="2084"/>
	<outline>
		<contour>
			<point x="235" y="-136" type="line"/>
			<point x="311" y="-136" type="line"/>
			<point x="311" y="-53" type="line"/>
			<point x="356" y="-53" type="line"/>
			<point x="356" y="18" type="line"/>
			<point x="311" y="18" type="line"/>
			<point x="311" y="316" type="line"/>
			<point x="235" y="316" type="line"/>
			<point x="48" y="58" type="line" smooth="yes"/>
			<point x="27" y="30"/>
			<point x="12" y="-10"/>
			<point x="12" y="-53" type="curve"/>
			<point x="235" y="-53" type="line"/>
		</contour>
		<contour>
			<point x="109" y="18" type="line"/>
			<point x="235" y="211" type="line"/>
			<point x="235" y="18" type="line"/>
		</contour>
	</outline>
</glyph>
<glyph name="published" format="2">
	<advance width="449"/>
	<unicode hex="2117"/>
	<outline>
		<contour>
			<point x="224" y="391" type="curve" smooth="yes"/>
			<point x="328" y="391"/>
			<point x="413" y="476"/>
			<point x="413" y="580" type="curve" smooth="yes"/>
			<point x="413" y="684"/>
			<point x="328" y="768"/>
			<point x="224" y="768" type="curve" smooth="yes"/>
			<point x="120" y="768"/>
			<point x="36" y="684"/>
			<point x="36" y="580" type="curve" smooth="yes"/>
			<point x="36" y="476"/>
			<point x="120" y="391"/>
		</contour>
		<contour>
			<point x="224" y="429" type="curve" smooth="yes"/>
			<point x="141" y="429"/>
			<point x="73" y="496"/>
			<point x="73" y="580" type="curve" smooth="yes"/>
			<point x="73" y="663"/>
			<point x="141" y="731"/>
			<point x="224" y="731" type="curve" smooth="yes"/>
			<point x="308" y="731"/>
			<point x="375" y="663"/>
			<point x="375" y="580" type="curve" smooth="yes"/>
			<point x="375" y="496"/>
			<point x="308" y="429"/>
		</contour>
		<contour>
			<point x="161" y="470" type="line"/>
			<point x="192" y="470" type="line"/>
			<point x="192" y="549" type="line"/>
			<point x="227" y="549" type="line" smooth="yes"/>
			<point x="279" y="549"/>
			<point x="311" y="569"/>
			<point x="311" y="618" type="curve" smooth="yes"/>
			<point x="311" y="667"/>
			<point x="279" y="687"/>
			<point x="227" y="687" type="curve" smooth="yes"/>
			<point x="161" y="687" type="line"/>
		</contour>
		<contour>
			<point x="192" y="579" type="line"/>
			<point x="192" y="658" type="line"/>
			<point x="230" y="658" type="line" smooth="yes"/>
			<point x="266" y="658"/>
			<point x="281" y="648"/>
			<point x="281" y="619" type="curve" smooth="yes"/>
			<point x="281" y="589"/>
			<point x="268" y="579"/>
			<point x="231" y="579" type="curve" smooth="yes"/>
		</contour>
	</outline>
</glyph>
<glyph name="northWestArrow" format="2">
	<advance width="591"/>
	<unicode hex="2196"/>
	<outline>
		<contour>
			<point x="531" y="79" type="line"/>
			<point x="597" y="145" type="line"/>
			<point x="190" y="552" type="line"/>
			<point x="416" y="490" type="line"/>
			<point x="495" y="569" type="line"/>
			<point x="103" y="640" type="line" smooth="yes"/>
			<point x="73" y="645"/>
			<point x="50" y="649"/>
			<point x="22" y="654" type="curve"/>
			<point x="26" y="626"/>
			<point x="31" y="599"/>
			<point x="36" y="573" type="curve" smooth="yes"/>
			<point x="107" y="181" type="line"/>
			<point x="186" y="260" type="line"/>
			<point x="124" y="486" type="line"/>
		</contour>
	</outline>
</glyph>
<glyph name="southEastArrow" format="2">
	<advance width="563"/>
	<unicode hex="2198"/>
	<outline>
		<contour>
			<point x="559" y="96" type="curve"/>
			<point x="554" y="124"/>
			<point x="550" y="147"/>
			<point x="545" y="177" type="curve" smooth="yes"/>
			<point x="474" y="568" type="line"/>
			<point x="396" y="490" type="line"/>
			<point x="458" y="264" type="line"/>
			<point x="51" y="671" type="line"/>
			<point x="-16" y="604" type="line"/>
			<point x="391" y="198" type="line"/>
			<point x="165" y="259" type="line"/>
			<point x="87" y="181" type="line"/>
			<point x="479" y="110" type="line" smooth="yes"/>
			<point x="509" y="105"/>
			<point x="532" y="101"/>
		</contour>
	</outline>
</glyph>
<glyph name="partialdiff" format="2">
	<advance width="581"/>
	<unicode hex="2202"/>
	<outline>
		<contour>
			<point x="537" y="359" type="curve" smooth="yes"/>
			<point x="537" y="572"/>
			<point x="403" y="736"/>
			<point x="200" y="774" type="curve"/>
			<point x="156" y="695" type="line"/>
			<point x="310" y="664"/>
			<point x="422" y="555"/>
			<point x="440" y="403" type="curve"/>
			<point x="411" y="441"/>
			<point x="338" y="468"/>
			<point x="279" y="468" type="curve" smooth="yes"/>
			<point x="139" y="468"/>
			<point x="37" y="366"/>
			<point x="37" y="219" type="curve" smooth="yes"/>
			<point x="37" y="82"/>
			<point x="133" y="-14"/>
			<point x="257" y="-14" type="curve" smooth="yes"/>
			<point x="421" y="-14"/>
			<point x="537" y="128"/>
		</contour>
		<contour>
			<point x="289" y="381" type="curve" smooth="yes"/>
			<point x="346" y="381"/>
			<point x="405" y="354"/>
			<point x="442" y="314" type="curve"/>
			<point x="442" y="160"/>
			<point x="367" y="77"/>
			<point x="264" y="77" type="curve" smooth="yes"/>
			<point x="187" y="77"/>
			<point x="137" y="126"/>
			<point x="137" y="219" type="curve" smooth="yes"/>
			<point x="137" y="318"/>
			<point x="199" y="381"/>
		</contour>
	</outline>
</glyph>
<glyph name="minus" format="2">
	<advance width="584"/>
	<unicode hex="2212"/>
	<outline>
		<contour>
			<point x="35" y="282" type="line"/>
			<point x="549" y="282" type="line"/>
			<point x="549" y="361" type="line"/>
			<point x="35" y="361" type="line"/>
		</contour>
	</outline>
</glyph>
<glyph name="radical" format="2">
	<advance width="843"/>
	<unicode hex="221A"/>
	<outline>
		<contour>
			<point x="235" y="-278" type="line"/>
			<point x="333" y="-278" type="line"/>
			<point x="621" y="752" type="line"/>
			<point x="523" y="752" type="line"/>
		</contour>
		<contour>
			<point x="235" y="-278" type="line"/>
			<point x="333" y="-278" type="line"/>
			<point x="108" y="222" type="line"/>
			<point x="10" y="222" type="line"/>
		</contour>
		<contour>
			<point x="523" y="662" type="line"/>
			<point x="823" y="662" type="line"/>
			<point x="823" y="752" type="line"/>
			<point x="523" y="752" type="line"/>
		</contour>
	</outline>
</glyph>
<glyph name="integral" format="2">
	<advance width="348"/>
	<unicode hex="222B"/>
	<outline>
		<contour>
			<point x="-74" y="-275" type="line"/>
			<point x="-48" y="-275" type="line" smooth="yes"/>
			<point x="89" y="-275"/>
			<point x="158" y="-274"/>
			<point x="158" y="-99" type="curve" smooth="yes"/>
			<point x="158" y="604" type="line" smooth="yes"/>
			<point x="158" y="692"/>
			<point x="202" y="695"/>
			<point x="277" y="690" type="curve" smooth="yes"/>
			<point x="293" y="689" type="line"/>
			<point x="299" y="780" type="line"/>
			<point x="273" y="780" type="line" smooth="yes"/>
			<point x="136" y="780"/>
			<point x="67" y="779"/>
			<point x="67" y="604" type="curve" smooth="yes"/>
			<point x="67" y="-99" type="line" smooth="yes"/>
			<point x="67" y="-187"/>
			<point x="23" y="-190"/>
			<point x="-52" y="-185" type="curve" smooth="yes"/>
			<point x="-68" y="-184" type="line"/>
		</contour>
	</outline>
</glyph>
<glyph name="clubBlackSuit" format="2">
	<advance width="1000"/>
	<unicode hex="2663"/>
	<outline>
		<contour>
			<point x="83" y="222" type="curve" smooth="yes"/>
			<point x="83" y="133"/>
			<point x="144" y="15"/>
			<point x="302" y="15" type="curve" smooth="yes"/>
			<point x="395" y="15"/>
			<point x="443" y="63"/>
			<point x="468" y="107" type="curve"/>
			<point x="470" y="101"/>
			<point x="471" y="95"/>
			<point x="471" y="88" type="curve" smooth="yes"/>
			<point x="471" y="-11"/>
			<point x="359" y="-24"/>
			<point x="334" y="-74" type="curve" smooth="yes"/>
			<point x="329" y="-84"/>
			<point x="325" y="-108"/>
			<point x="345" y="-108" type="curve" smooth="yes"/>
			<point x="655" y="-108" type="line" smooth="yes"/>
			<point x="675" y="-108"/>
			<point x="671" y="-84"/>
			<point x="666" y="-74" type="curve" smooth="yes"/>
			<point x="641" y="-24"/>
			<point x="529" y="-11"/>
			<point x="529" y="88" type="curve" smooth="yes"/>
			<point x="529" y="95"/>
			<point x="530" y="101"/>
			<point x="532" y="107" type="curve"/>
			<point x="557" y="63"/>
			<point x="605" y="15"/>
			<point x="698" y="15" type="curve" smooth="yes"/>
			<point x="856" y="15"/>
			<point x="917" y="133"/>
			<point x="917" y="222" type="curve" smooth="yes"/>
			<point x="917" y="339"/>
			<point x="833" y="436"/>
			<point x="708" y="436" type="curve" smooth="yes"/>
			<point x="682" y="436"/>
			<point x="658" y="431"/>
			<point x="635" y="422" type="curve"/>
			<point x="641" y="428"/>
			<point x="647" y="434"/>
			<point x="652" y="440" type="curve" smooth="yes"/>
			<point x="682" y="475"/>
			<point x="700" y="520"/>
			<point x="700" y="570" type="curve" smooth="yes"/>
			<point x="700" y="681"/>
			<point x="611" y="770"/>
			<point x="500" y="770" type="curve" smooth="yes"/>
			<point x="389" y="770"/>
			<point x="300" y="681"/>
			<point x="300" y="570" type="curve" smooth="yes"/>
			<point x="300" y="520"/>
			<point x="318" y="475"/>
			<point x="348" y="440" type="curve" smooth="yes"/>
			<point x="353" y="434"/>
			<point x="359" y="428"/>
			<point x="365" y="422" type="curve"/>
			<point x="342" y="431"/>
			<point x="318" y="436"/>
			<point x="292" y="436" type="curve" smooth="yes"/>
			<point x="167" y="436"/>
			<point x="83" y="339"/>
		</contour>
	</outline>
</glyph>
<glyph name="rightBlackArrowhead" format="2">
	<advance width="519"/>
	<unicode hex="27A4"/>
	<outline>
		<contour>
			<point x="28" y="125" type="line"/>
			<point x="415" y="332" type="line" smooth="yes"/>
			<point x="438" y="344"/>
			<point x="479" y="366"/>
			<point x="503" y="379" type="curve"/>
			<point x="479" y="392"/>
			<point x="438" y="414"/>
			<point x="415" y="426" type="curve" smooth="yes"/>
			<point x="28" y="633" type="line"/>
			<point x="28" y="632" type="line"/>
			<point x="170" y="384" type="line"/>
			<point x="28" y="125" type="line"/>
		</contour>
	</outline>
</glyph>
<glyph name="uni4ECA" format="2">
	<advance width="1000"/>
	<unicode hex="4ECA"/>
	<outline>
		<contour>
			<point x="911" y="399" type="curve"/>
			<point x="965" y="484" type="line"/>
			<point x="772" y="588"/>
			<point x="648" y="704"/>
			<point x="556" y="848" type="curve"/>
			<point x="449" y="848" type="line"/>
			<point x="357" y="709"/>
			<point x="223" y="589"/>
			<point x="32" y="483" type="curve"/>
			<point x="89" y="401" type="line"/>
			<point x="266" y="501"/>
			<point x="413" y="635"/>
			<point x="501" y="764" type="curve"/>
			<point x="590" y="634"/>
			<point x="728" y="508"/>
		</contour>
		<contour>
			<point x="408" y="-68" type="line"/>
			<point x="706" y="92"/>
			<point x="811" y="212"/>
			<point x="811" y="352" type="curve"/>
			<point x="190" y="352" type="line"/>
			<point x="190" y="265" type="line"/>
			<point x="697" y="265" type="line"/>
			<point x="624" y="164"/>
			<point x="470" y="78"/>
			<point x="334" y="17" type="curve"/>
		</contour>
		<contour>
			<point x="547" y="393" type="curve"/>
			<point x="630" y="462" type="line"/>
			<point x="586" y="517"/>
			<point x="524" y="576"/>
			<point x="457" y="632" type="curve"/>
			<point x="393" y="570" type="line"/>
			<point x="437" y="530"/>
			<point x="517" y="447"/>
		</contour>
	</outline>
</glyph>
<glyph name="uni56FD" format="2">
	<advance width="1000"/>
	<unicode hex="56FD"/>
	<outline>
		<contour>
			<point x="86" y="-23" type="line"/>
			<point x="182" y="-23" type="line"/>
			<point x="182" y="15" type="line"/>
			<point x="804" y="15" type="line"/>
			<point x="804" y="-23" type="line"/>
			<point x="900" y="-23" type="line"/>
			<point x="900" y="836" type="line"/>
			<point x="86" y="836" type="line"/>
		</contour>
		<contour>
			<point x="172" y="101" type="line"/>
			<point x="172" y="750" type="line"/>
			<point x="814" y="750" type="line"/>
			<point x="814" y="101" type="line"/>
		</contour>
		<contour>
			<point x="221" y="160" type="line"/>
			<point x="762" y="160" type="line"/>
			<point x="762" y="241" type="line"/>
			<point x="524" y="241" type="line"/>
			<point x="524" y="406" type="line"/>
			<point x="730" y="406" type="line"/>
			<point x="730" y="490" type="line"/>
			<point x="524" y="490" type="line"/>
			<point x="524" y="606" type="line"/>
			<point x="745" y="606" type="line"/>
			<point x="745" y="688" type="line"/>
			<point x="238" y="688" type="line"/>
			<point x="238" y="606" type="line"/>
			<point x="451" y="606" type="line"/>
			<point x="451" y="490" type="line"/>
			<point x="256" y="490" type="line"/>
			<point x="256" y="406" type="line"/>
			<point x="451" y="406" type="line"/>
			<point x="451" y="241" type="line"/>
			<point x="221" y="241" type="line"/>
		</contour>
		<contour>
			<point x="676" y="258" type="curve"/>
			<point x="732" y="309" type="line"/>
			<point x="700" y="338"/>
			<point x="662" y="363"/>
			<point x="611" y="391" type="curve"/>
			<point x="565" y="344" type="line"/>
			<point x="611" y="319"/>
			<point x="648" y="289"/>
		</contour>
	</outline>
</glyph>
<glyph name="uni706B" format="2">
	<advance width="1000"/>
	<unicode hex="706B"/>
	<outline>
		<contour>
			<point x="100" y="-59" type="line"/>
			<point x="317" y="70"/>
			<point x="440" y="199"/>
			<point x="495" y="358" type="curve"/>
			<point x="553" y="185"/>
			<point x="682" y="60"/>
			<point x="887" y="-56" type="curve"/>
			<point x="950" y="19" type="line"/>
			<point x="702" y="165"/>
			<point x="540" y="323"/>
			<point x="540" y="542" type="curve" smooth="yes"/>
			<point x="540" y="854" type="line"/>
			<point x="447" y="851" type="line"/>
			<point x="447" y="612" type="line" smooth="yes"/>
			<point x="447" y="337"/>
			<point x="337" y="183"/>
			<point x="47" y="13" type="curve"/>
		</contour>
		<contour>
			<point x="229" y="333" type="line"/>
			<point x="297" y="413"/>
			<point x="357" y="516"/>
			<point x="387" y="641" type="curve"/>
			<point x="311" y="681" type="line"/>
			<point x="287" y="578"/>
			<point x="210" y="455"/>
			<point x="150" y="381" type="curve"/>
		</contour>
		<contour>
			<point x="697" y="352" type="line"/>
			<point x="763" y="424"/>
			<point x="838" y="546"/>
			<point x="883" y="641" type="curve"/>
			<point x="807" y="692" type="line"/>
			<point x="769" y="608"/>
			<point x="685" y="486"/>
			<point x="617" y="407" type="curve"/>
		</contour>
	</outline>
</glyph>
<glyph name="uni82B1" format="2">
	<advance width="1000"/>
	<unicode hex="82B1"/>
	<outline>
		<contour>
			<point x="628" y="-47" type="curve" smooth="yes"/>
			<point x="676" y="-49"/>
			<point x="724" y="-49"/>
			<point x="772" y="-47" type="curve" smooth="yes"/>
			<point x="866" y="-43"/>
			<point x="896" y="-20"/>
			<point x="905" y="22" type="curve" smooth="yes"/>
			<point x="915" y="71"/>
			<point x="919" y="107"/>
			<point x="921" y="151" type="curve"/>
			<point x="842" y="195" type="line"/>
			<point x="842" y="154"/>
			<point x="840" y="109"/>
			<point x="831" y="75" type="curve" smooth="yes"/>
			<point x="824" y="49"/>
			<point x="813" y="41"/>
			<point x="754" y="34" type="curve" smooth="yes"/>
			<point x="721" y="30"/>
			<point x="688" y="30"/>
			<point x="655" y="34" type="curve" smooth="yes"/>
			<point x="602" y="40"/>
			<point x="601" y="55"/>
			<point x="601" y="105" type="curve" smooth="yes"/>
			<point x="601" y="229" type="line"/>
			<point x="716" y="316"/>
			<point x="779" y="383"/>
			<point x="863" y="476" type="curve"/>
			<point x="822" y="553" type="line"/>
			<point x="748" y="468"/>
			<point x="696" y="410"/>
			<point x="601" y="332" type="curve"/>
			<point x="601" y="554" type="line"/>
			<point x="517" y="563" type="line"/>
			<point x="517" y="279" type="line"/>
			<point x="452" y="231"/>
			<point x="390" y="196"/>
			<point x="319" y="157" type="curve"/>
			<point x="380" y="92" type="line"/>
			<point x="438" y="126"/>
			<point x="468" y="144"/>
			<point x="517" y="180" type="curve"/>
			<point x="517" y="77" type="line" smooth="yes"/>
			<point x="517" y="-14"/>
			<point x="547" y="-44"/>
		</contour>
		<contour>
			<point x="209" y="-61" type="line"/>
			<point x="294" y="-61" type="line"/>
			<point x="294" y="410" type="line"/>
			<point x="312" y="442"/>
			<point x="346" y="504"/>
			<point x="362" y="549" type="curve"/>
			<point x="277" y="564" type="line"/>
			<point x="202" y="426"/>
			<point x="136" y="344"/>
			<point x="30" y="249" type="curve"/>
			<point x="78" y="171" type="line"/>
			<point x="135" y="221"/>
			<point x="170" y="264"/>
			<point x="209" y="317" type="curve"/>
		</contour>
		<contour>
			<point x="623" y="578" type="line"/>
			<point x="701" y="578" type="line"/>
			<point x="701" y="671" type="line"/>
			<point x="919" y="671" type="line"/>
			<point x="919" y="750" type="line"/>
			<point x="701" y="750" type="line"/>
			<point x="701" y="850" type="line"/>
			<point x="623" y="850" type="line"/>
			<point x="623" y="750" type="line"/>
			<point x="360" y="750" type="line"/>
			<point x="360" y="850" type="line"/>
			<point x="283" y="850" type="line"/>
			<point x="283" y="750" type="line"/>
			<point x="72" y="750" type="line"/>
			<point x="72" y="671" type="line"/>
			<point x="283" y="671" type="line"/>
			<point x="283" y="585" type="line"/>
			<point x="360" y="585" type="line"/>
			<point x="360" y="671" type="line"/>
			<point x="623" y="671" type="line"/>
		</contour>
	</outline>
</glyph>
<glyph name="G.ss02" format="2">
	<advance width="797"/>
	<anchor x="399" y="752" name="top"/>
	<anchor x="399" y="-12" name="bottom"/>
	<outline>
		<contour>
			<point x="401" y="-14" type="curve" smooth="yes"/>
			<point x="653" y="-14"/>
			<point x="748" y="146"/>
			<point x="748" y="340" type="curve"/>
			<point x="748" y="381"/>
			<point x="748" y="394"/>
			<point x="747" y="425" type="curve"/>
			<point x="396" y="425" type="line"/>
			<point x="396" y="335" type="line"/>
			<point x="651" y="335" type="line"/>
			<point x="651" y="182"/>
			<point x="591" y="76"/>
			<point x="401" y="76" type="curve" smooth="yes"/>
			<point x="212" y="76"/>
			<point x="147" y="202"/>
			<point x="147" y="379" type="curve" smooth="yes"/>
			<point x="147" y="555"/>
			<point x="212" y="683"/>
			<point x="401" y="683" type="curve" smooth="yes"/>
			<point x="480" y="683"/>
			<point x="545" y="668"/>
			<point x="586" y="622" type="curve"/>
			<point x="655" y="689" type="line"/>
			<point x="599" y="746"/>
			<point x="515" y="772"/>
			<point x="401" y="772" type="curve" smooth="yes"/>
			<point x="149" y="772"/>
			<point x="52" y="594"/>
			<point x="52" y="379" type="curve" smooth="yes"/>
			<point x="52" y="164"/>
			<point x="149" y="-14"/>
		</contour>
	</outline>
</glyph>
<glyph name="_slash.zero" format="2">
	<advance width="680"/>
	<outline>
		<contour>
			<point x="345" y="294" type="curve" smooth="yes"/>
			<point x="385" y="294"/>
			<point x="416" y="325"/>
			<point x="416" y="383" type="curve" smooth="yes"/>
			<point x="416" y="440"/>
			<point x="385" y="471"/>
			<point x="345" y="471" type="curve" smooth="yes"/>
			<point x="304" y="471"/>
			<point x="273" y="440"/>
			<point x="273" y="383" type="curve" smooth="yes"/>
			<point x="273" y="325"/>
			<point x="304" y="294"/>
		</contour>
	</outline>
</glyph>
<glyph name="e.ss02" format="2">
	<advance width="619"/>
	<anchor x="415" y="-4" name="ogonek"/>
	<anchor x="316" y="-11" name="bottom"/>
	<anchor x="310" y="504" name="top"/>
	<outline>
		<contour>
			<point x="314" y="-14" type="curve" smooth="yes"/>
			<point x="421" y="-14"/>
			<point x="495" y="22"/>
			<point x="540" y="93" type="curve"/>
			<point x="475" y="151" type="line"/>
			<point x="434" y="102"/>
			<point x="401" y="76"/>
			<point x="314" y="76" type="curve" smooth="yes"/>
			<point x="213" y="76"/>
			<point x="151" y="133"/>
			<point x="143" y="231" type="curve" smooth="yes"/>
			<point x="143" y="234" type="line"/>
			<point x="574" y="234" type="line"/>
			<point x="574" y="480"/>
			<point x="412" y="524"/>
			<point x="313" y="524" type="curve" smooth="yes"/>
			<point x="112" y="524"/>
			<point x="47" y="375"/>
			<point x="47" y="255" type="curve" smooth="yes"/>
			<point x="47" y="135"/>
			<point x="113" y="-14"/>
		</contour>
		<contour>
			<point x="150" y="316" type="line"/>
			<point x="150" y="317" type="line" smooth="yes"/>
			<point x="169" y="392"/>
			<point x="224" y="434"/>
			<point x="313" y="434" type="curve" smooth="yes"/>
			<point x="369" y="434"/>
			<point x="447" y="419"/>
			<point x="477" y="316" type="curve"/>
		</contour>
	</outline>
</glyph>
<glyph name="ge-cy.loclBGR" format="2">
	<advance width="569"/>
	<anchor x="284" y="504" name="top"/>
	<anchor x="266" y="-11" name="bottom"/>
	<outline>
		<contour>
			<point x="268" y="-14" type="curve"/>
			<point x="451" y="-14"/>
			<point x="522" y="85"/>
			<point x="522" y="157" type="curve"/>
			<point x="427" y="157" type="line"/>
			<point x="416" y="107"/>
			<point x="361" y="76"/>
			<point x="284" y="76" type="curve" smooth="yes"/>
			<point x="192" y="76"/>
			<point x="149" y="95"/>
			<point x="149" y="152" type="curve" smooth="yes"/>
			<point x="149" y="188"/>
			<point x="173" y="201"/>
			<point x="238" y="210" type="curve" smooth="yes"/>
			<point x="356" y="227" type="line" smooth="yes"/>
			<point x="434" y="238"/>
			<point x="510" y="275"/>
			<point x="510" y="372" type="curve" smooth="yes"/>
			<point x="510" y="478"/>
			<point x="424" y="524"/>
			<point x="293" y="524" type="curve" smooth="yes"/>
			<point x="127" y="524"/>
			<point x="62" y="440"/>
			<point x="59" y="376" type="curve"/>
			<point x="152" y="376" type="line"/>
			<point x="166" y="412"/>
			<point x="219" y="437"/>
			<point x="283" y="437" type="curve" smooth="yes"/>
			<point x="349" y="437"/>
			<point x="415" y="428"/>
			<point x="415" y="372" type="curve" smooth="yes"/>
			<point x="415" y="339"/>
			<point x="398" y="326"/>
			<point x="336" y="317" type="curve" smooth="yes"/>
			<point x="213" y="299" type="line" smooth="yes"/>
			<point x="125" y="286"/>
			<point x="53" y="245"/>
			<point x="53" y="160" type="curve" smooth="yes"/>
			<point x="53" y="40"/>
			<point x="137" y="-14"/>
		</contour>
	</outline>
</glyph>
<glyph name="ka-cy.loclBGR" format="2">
	<advance width="570"/>
	<outline>
		<contour>
			<point x="78" y="0" type="line"/>
			<point x="167" y="0" type="line"/>
			<point x="167" y="782" type="line"/>
			<point x="78" y="782" type="line"/>
		</contour>
		<contour>
			<point x="84" y="228" type="line"/>
			<point x="232" y="228" type="line"/>
			<point x="232" y="289" type="line"/>
			<point x="84" y="289" type="line"/>
		</contour>
		<contour>
			<point x="404" y="0" type="line"/>
			<point x="522" y="0" type="line"/>
			<point x="254" y="280" type="line"/>
			<point x="179" y="242" type="line"/>
		</contour>
		<contour>
			<point x="247" y="237" type="line"/>
			<point x="506" y="504" type="line"/>
			<point x="389" y="504" type="line"/>
			<point x="144" y="245" type="line"/>
		</contour>
	</outline>
</glyph>
<glyph name="one.osf" format="2">
	<advance width="351"/>
	<outline>
		<contour>
			<point x="179" y="0" type="line"/>
			<point x="273" y="0" type="line"/>
			<point x="273" y="575" type="line"/>
			<point x="179" y="575" type="line"/>
			<point x="129" y="538"/>
			<point x="76" y="505"/>
			<point x="26" y="487" type="curve"/>
			<point x="26" y="384" type="line"/>
			<point x="78" y="400"/>
			<point x="138" y="435"/>
			<point x="179" y="488" type="curve"/>
		</contour>
	</outline>
</glyph>
<glyph name="one.tf" format="2">
	<advance width="700"/>
	<outline>
		<contour>
			<point x="152" y="0" type="line"/>
			<point x="610" y="0" type="line"/>
			<point x="610" y="89" type="line"/>
			<point x="152" y="89" type="line"/>
		</contour>
		<component base="one" xOffset="150"/>
	</outline>
</glyph>
<glyph name="smallzero" format="2">
	<advance width="444"/>
	<outline>
		<contour>
			<point x="222" y="-139" type="curve" smooth="yes"/>
			<point x="361" y="-139"/>
			<point x="412" y="-33"/>
			<point x="412" y="94" type="curve" smooth="yes"/>
			<point x="412" y="220"/>
			<point x="361" y="326"/>
			<point x="222" y="326" type="curve" smooth="yes"/>
			<point x="83" y="326"/>
			<point x="32" y="220"/>
			<point x="32" y="94" type="curve" smooth="yes"/>
			<point x="32" y="-33"/>
			<point x="83" y="-139"/>
		</contour>
		<contour>
			<point x="222" y="-60" type="curve" smooth="yes"/>
			<point x="127" y="-60"/>
			<point x="113" y="-5"/>
			<point x="113" y="94" type="curve" smooth="yes"/>
			<point x="113" y="193"/>
			<point x="127" y="248"/>
			<point x="222" y="248" type="curve" smooth="yes"/>
			<point x="317" y="248"/>
			<point x="331" y="193"/>
			<point x="331" y="94" type="curve" smooth="yes"/>
			<point x="331" y="-5"/>
			<point x="317" y="-60"/>
		</contour>
	</outline>
</glyph>
<glyph name="tonos.case" format="2">
	<advance width="600"/>
	<anchor x="291" y="752" name="_topleft"/>
	<outline>
		<contour>
			<point x="136" y="614" type="line"/>
			<point x="213" y="614" type="line"/>
			<point x="271" y="752" type="line"/>
			<point x="181" y="752" type="line"/>
		</contour>
	</outline>
</glyph>
<glyph name="ze-cy.loclBGR" format="2">
	<advance width="565"/>
	<outline>
		<contour>
			<point x="269" y="-294" type="curve" smooth="yes"/>
			<point x="457" y="-294"/>
			<point x="531" y="-195"/>
			<point x="531" y="-73" type="curve" smooth="yes"/>
			<point x="531" y="15"/>
			<point x="495" y="94"/>
			<point x="418" y="139" type="curve"/>
			<point x="475" y="175"/>
			<point x="508" y="240"/>
			<point x="508" y="314" type="curve" smooth="yes"/>
			<point x="508" y="442"/>
			<point x="423" y="524"/>
			<point x="269" y="524" type="curve" smooth="yes"/>
			<point x="115" y="524"/>
			<point x="30" y="432"/>
			<point x="30" y="314" type="curve"/>
			<point x="119" y="314" type="line"/>
			<point x="119" y="403"/>
			<point x="184" y="443"/>
			<point x="269" y="443" type="curve" smooth="yes"/>
			<point x="354" y="443"/>
			<point x="419" y="403"/>
			<point x="419" y="314" type="curve" smooth="yes"/>
			<point x="419" y="225"/>
			<point x="360" y="176"/>
			<point x="270" y="176" type="curve" smooth="yes"/>
			<point x="258" y="176"/>
			<point x="192" y="176"/>
			<point x="179" y="176" type="curve"/>
			<point x="179" y="88" type="line"/>
			<point x="192" y="88"/>
			<point x="258" y="88"/>
			<point x="270" y="88" type="curve" smooth="yes"/>
			<point x="370" y="88"/>
			<point x="436" y="28"/>
			<point x="436" y="-73" type="curve" smooth="yes"/>
			<point x="436" y="-174"/>
			<point x="362" y="-204"/>
			<point x="269" y="-204" type="curve" smooth="yes"/>
			<point x="180" y="-204"/>
			<point x="117" y="-172"/>
			<point x="112" y="-86" type="curve"/>
			<point x="17" y="-86" type="line"/>
			<point x="21" y="-198"/>
			<point x="85" y="-294"/>
		</contour>
	</outline>
</glyph>
